<svg width="33" height="30" viewBox="0 0 33 30" fill="none" xmlns="http://www.w3.org/2000/svg">
<path d="M2.17078 3.2373C1.89252 3.2373 1.66992 3.43967 1.66992 3.69262V5.91859C1.66992 6.17155 1.89252 6.37391 2.17078 6.37391C2.44903 6.37391 2.67163 6.17155 2.67163 5.91859V3.69262C2.67163 3.43967 2.44903 3.2373 2.17078 3.2373Z" fill="white"/>
<path d="M18.7822 13.3057H6.23327C5.95502 13.3057 5.73242 13.508 5.73242 13.761C5.73242 14.0139 5.95502 14.2163 6.23327 14.2163H18.7822C19.0604 14.2163 19.283 14.0139 19.283 13.761C19.283 13.508 19.0604 13.3057 18.7822 13.3057Z" fill="white"/>
<path d="M18.7822 16.0117H6.23327C5.95502 16.0117 5.73242 16.2141 5.73242 16.467C5.73242 16.72 5.95502 16.9224 6.23327 16.9224H18.7822C19.0604 16.9224 19.283 16.72 19.283 16.467C19.283 16.2141 19.0604 16.0117 18.7822 16.0117Z" fill="white"/>
<path d="M6.23326 19.604H17.1683C17.4465 19.604 17.6691 19.4016 17.6691 19.1487C17.6691 18.8957 17.4465 18.6934 17.1683 18.6934H6.23326C5.95502 18.6934 5.73242 18.8957 5.73242 19.1487C5.73242 19.4016 5.95502 19.604 6.23326 19.604V19.604Z" fill="white"/>
<path d="M6.23326 22.2847H17.1683C17.4465 22.2847 17.6691 22.0823 17.6691 21.8293C17.6691 21.5764 17.4465 21.374 17.1683 21.374H6.23326C5.95502 21.374 5.73242 21.5764 5.73242 21.8293C5.73242 22.0823 5.95502 22.2847 6.23326 22.2847V22.2847Z" fill="white"/>
<path d="M18.7822 24.1064H6.23327C5.95502 24.1064 5.73242 24.3088 5.73242 24.5618C5.73242 24.8147 5.95502 25.0171 6.23327 25.0171H18.7822C19.0604 25.0171 19.283 24.8147 19.283 24.5618C19.283 24.3088 19.0604 24.1064 18.7822 24.1064Z" fill="white"/>
<path d="M33 10.2192C33 9.13153 32.0261 8.2715 30.8297 8.2715C30.1897 8.2715 29.5776 8.52445 29.188 8.97976L28.3533 9.86509L24.9865 13.5329V4.50253C24.9865 4.37605 24.9309 4.27487 24.8474 4.19899L20.3676 0.126476C20.2841 0.0505902 20.145 0 20.0337 0H0.500843C0.222597 0 0 0.202361 0 0.455312V29.5447C0 29.7976 0.222597 30 0.500843 30H24.5135C24.7917 30 24.9865 29.7976 25.0143 29.57V19.7049L31.6922 12.4199L32.527 11.5093C32.8052 11.1298 32.9722 10.6998 33 10.2192V10.2192ZM23.2057 20.2108L21.3971 18.8449L28.7985 10.7757L30.6071 12.1417L23.2057 20.2108ZM21.0632 19.7302L22.3153 20.6914L20.785 21.1973L21.0632 19.7302ZM20.5067 1.49241L23.317 4.04722H20.5067V1.49241ZM1.00169 29.0894V0.885329H19.5607V4.50253C19.5607 4.75548 19.7833 4.93255 20.0616 4.95784H24.0126V14.6206C24.0126 14.6206 20.4511 18.4907 20.3398 18.6425C20.2563 18.7184 20.2285 18.8449 20.2285 18.8702C20.0894 19.6037 19.839 21.0708 19.6998 21.8044C19.6442 22.1332 19.9503 22.4115 20.3398 22.285C21.1189 22.032 22.6771 21.5261 23.4283 21.2732C23.4562 21.2732 23.5675 21.1973 23.6231 21.1467C23.7066 21.0455 23.9848 20.742 23.9848 20.742V29.0894H1.00169ZM31.7479 10.9275L31.247 11.484L29.4384 10.118L29.9393 9.56155C30.3567 9.10624 31.1079 9.05565 31.6088 9.43508C31.887 9.63744 32.0261 9.94098 32.0261 10.2698C32.0261 10.4722 31.9148 10.7251 31.7479 10.9275Z" fill="white"/>
<path d="M28.1603 12.4708L25.9622 14.8738C25.7952 15.0509 25.823 15.3291 26.0178 15.5062C26.2126 15.6832 26.5187 15.6327 26.7134 15.4556L28.9116 13.0525C29.0785 12.8755 29.0507 12.5972 28.8559 12.4202C28.6333 12.2431 28.3273 12.2684 28.1603 12.4708V12.4708Z" fill="white"/>
<path d="M5.04395 7.69043L5.40527 6.57812H5.67676L5.16504 8H4.92578L4.41602 6.57812H4.68652L5.04395 7.69043ZM6.66895 7.36523H6.08496V7.80273H6.76758V8H5.83789V6.57812H6.76074V6.77734H6.08496V7.16992H6.66895V7.36523ZM8.09668 8H7.84961L7.21582 6.99121V8H6.96875V6.57812H7.21582L7.85156 7.59082V6.57812H8.09668V8ZM8.38867 8V6.57812H8.80859C8.93424 6.57812 9.04557 6.60612 9.14258 6.66211C9.24023 6.7181 9.31576 6.79753 9.36914 6.90039C9.42253 7.00326 9.44922 7.12109 9.44922 7.25391V7.3252C9.44922 7.45996 9.4222 7.57845 9.36816 7.68066C9.31478 7.78288 9.23828 7.86165 9.13867 7.91699C9.03971 7.97233 8.92611 8 8.79785 8H8.38867ZM8.63574 6.77734V7.80273H8.79688C8.92643 7.80273 9.02572 7.76237 9.09473 7.68164C9.16439 7.60026 9.19987 7.48372 9.20117 7.33203V7.25293C9.20117 7.09863 9.16764 6.98079 9.10059 6.89941C9.03353 6.81803 8.9362 6.77734 8.80859 6.77734H8.63574ZM10.4697 7.66895H9.91895L9.80371 8H9.54688L10.084 6.57812H10.3057L10.8438 8H10.5859L10.4697 7.66895ZM9.98828 7.46973H10.4004L10.1943 6.87988L9.98828 7.46973Z" fill="white"/>
</svg>
