<svg width="16" height="15" viewBox="0 0 16 15" fill="none" xmlns="http://www.w3.org/2000/svg">
<path d="M1.02067 1.61865C0.889828 1.61865 0.785156 1.71983 0.785156 1.84631V2.9593C0.785156 3.08577 0.889828 3.18695 1.02067 3.18695C1.15151 3.18695 1.25618 3.08577 1.25618 2.9593V1.84631C1.25618 1.71983 1.15151 1.61865 1.02067 1.61865Z" fill="white"/>
<path d="M8.83156 6.65283H2.93082C2.79998 6.65283 2.69531 6.75401 2.69531 6.88049C2.69531 7.00697 2.79998 7.10815 2.93082 7.10815H8.83156C8.9624 7.10815 9.06707 7.00697 9.06707 6.88049C9.06707 6.75401 8.9624 6.65283 8.83156 6.65283Z" fill="white"/>
<path d="M8.83156 8.00586H2.93082C2.79998 8.00586 2.69531 8.10704 2.69531 8.23352C2.69531 8.35999 2.79998 8.46118 2.93082 8.46118H8.83156C8.9624 8.46118 9.06707 8.35999 9.06707 8.23352C9.06707 8.10704 8.9624 8.00586 8.83156 8.00586Z" fill="white"/>
<path d="M2.93082 9.80199H8.07269C8.20352 9.80199 8.30819 9.70081 8.30819 9.57433C8.30819 9.44786 8.20352 9.34668 8.07269 9.34668H2.93082C2.79998 9.34668 2.69531 9.44786 2.69531 9.57433C2.69531 9.70081 2.79998 9.80199 2.93082 9.80199Z" fill="white"/>
<path d="M2.93082 11.1423H8.07269C8.20352 11.1423 8.30819 11.0411 8.30819 10.9147C8.30819 10.7882 8.20352 10.687 8.07269 10.687H2.93082C2.79998 10.687 2.69531 10.7882 2.69531 10.9147C2.69531 11.0411 2.79998 11.1423 2.93082 11.1423Z" fill="white"/>
<path d="M8.83156 12.0532H2.93082C2.79998 12.0532 2.69531 12.1544 2.69531 12.2809C2.69531 12.4074 2.79998 12.5085 2.93082 12.5085H8.83156C8.9624 12.5085 9.06707 12.4074 9.06707 12.2809C9.06707 12.1544 8.9624 12.0532 8.83156 12.0532Z" fill="white"/>
<path d="M15.5172 5.10961C15.5172 4.56577 15.0593 4.13575 14.4967 4.13575C14.1958 4.13575 13.9079 4.26223 13.7248 4.48988L13.3323 4.93255L11.7491 6.76644V2.25126C11.7491 2.18803 11.723 2.13744 11.6837 2.09949L9.57725 0.0632378C9.538 0.0252951 9.47258 0 9.42025 0H0.235506C0.104669 0 0 0.10118 0 0.227656V14.7723C0 14.8988 0.104669 15 0.235506 15H11.5267C11.6576 15 11.7491 14.8988 11.7622 14.785V9.85244L14.9023 6.20995L15.2948 5.75464C15.4257 5.56492 15.5042 5.34992 15.5172 5.10961ZM10.9118 10.1054L10.0613 9.42243L13.5416 5.38786L14.392 6.07083L10.9118 10.1054ZM9.90434 9.86509L10.4931 10.3457L9.77351 10.5986L9.90434 9.86509ZM9.64267 0.746206L10.9641 2.02361H9.64267V0.746206ZM0.471012 14.5447V0.442664H9.19783V2.25126C9.19783 2.37774 9.3025 2.46627 9.43333 2.47892H11.2912V7.31029C11.2912 7.31029 9.6165 9.24536 9.56417 9.32125C9.52492 9.35919 9.51183 9.42243 9.51183 9.43508C9.44641 9.80185 9.32866 10.5354 9.26324 10.9022C9.23708 11.0666 9.381 11.2057 9.56417 11.1425C9.93051 11.016 10.6632 10.7631 11.0165 10.6366C11.0295 10.6366 11.0819 10.5986 11.108 10.5734C11.1473 10.5228 11.2781 10.371 11.2781 10.371V14.5447H0.471012ZM14.9285 5.46374L14.693 5.74199L13.8425 5.05902L14.078 4.78078C14.2743 4.55312 14.6276 4.52782 14.8631 4.71754C14.9939 4.81872 15.0593 4.97049 15.0593 5.13491C15.0593 5.23609 15.007 5.36256 14.9285 5.46374Z" fill="white"/>
<path d="M13.2414 6.23538L12.2078 7.4369C12.1293 7.52543 12.1424 7.66455 12.234 7.75309C12.3256 7.84162 12.4695 7.81633 12.5611 7.72779L13.5947 6.52627C13.6732 6.43774 13.6601 6.29862 13.5685 6.21008C13.4638 6.12155 13.3199 6.1342 13.2414 6.23538Z" fill="white"/>
<path d="M2.71387 4.69043L3.0752 3.57812H3.34668L2.83496 5H2.5957L2.08594 3.57812H2.35645L2.71387 4.69043ZM4.33887 4.36523H3.75488V4.80273H4.4375V5H3.50781V3.57812H4.43066V3.77734H3.75488V4.16992H4.33887V4.36523ZM5.7666 5H5.51953L4.88574 3.99121V5H4.63867V3.57812H4.88574L5.52148 4.59082V3.57812H5.7666V5ZM6.05859 5V3.57812H6.47852C6.60417 3.57812 6.71549 3.60612 6.8125 3.66211C6.91016 3.7181 6.98568 3.79753 7.03906 3.90039C7.09245 4.00326 7.11914 4.12109 7.11914 4.25391V4.3252C7.11914 4.45996 7.09212 4.57845 7.03809 4.68066C6.9847 4.78288 6.9082 4.86165 6.80859 4.91699C6.70964 4.97233 6.59603 5 6.46777 5H6.05859ZM6.30566 3.77734V4.80273H6.4668C6.59635 4.80273 6.69564 4.76237 6.76465 4.68164C6.83431 4.60026 6.86979 4.48372 6.87109 4.33203V4.25293C6.87109 4.09863 6.83757 3.98079 6.77051 3.89941C6.70345 3.81803 6.60612 3.77734 6.47852 3.77734H6.30566ZM8.13965 4.66895H7.58887L7.47363 5H7.2168L7.75391 3.57812H7.97559L8.51367 5H8.25586L8.13965 4.66895ZM7.6582 4.46973H8.07031L7.86426 3.87988L7.6582 4.46973Z" fill="white"/>
</svg>
