<svg width="570" height="488" viewBox="0 0 570 488" fill="none" xmlns="http://www.w3.org/2000/svg">
<g clip-path="url(#clip0)">
<path d="M456.129 156.201V113.414H494.086V192.719L456.129 156.201Z" fill="url(#paint0_linear)"/>
<path d="M460.632 159.165V121.791H488.939V192.719L460.632 159.165Z" fill="#EC2527"/>
<path d="M524.966 70.8834C544.508 70.8834 560.349 55.0156 560.349 35.4417C560.349 15.8678 544.508 0 524.966 0C505.424 0 489.582 15.8678 489.582 35.4417C489.582 55.0156 505.424 70.8834 524.966 70.8834Z" fill="url(#paint1_linear)"/>
<path d="M524.966 63.7951C540.6 63.7951 553.273 51.1009 553.273 35.4417C553.273 19.7826 540.6 7.08838 524.966 7.08838C509.333 7.08838 496.659 19.7826 496.659 35.4417C496.659 51.1009 509.333 63.7951 524.966 63.7951Z" fill="#FF9800"/>
<path d="M222.267 196.843C227.49 190.859 231.37 183.821 233.644 176.205C235.919 168.589 236.534 160.573 235.449 152.699C234.364 144.824 231.604 137.275 227.355 130.561C223.106 123.847 217.468 118.125 210.822 113.781C214.258 108.453 216.081 102.242 216.071 95.899C216.071 77.959 201.873 63.415 184.361 63.415C169.937 63.415 157.778 73.2936 153.937 86.8001C145.658 72.7845 130.636 63.415 113.478 63.415C87.3774 63.415 66.2243 85.086 66.2243 111.822C66.2183 117.517 67.1978 123.171 69.1194 128.531C68.1608 128.454 67.1893 128.383 66.2243 128.383C45.2772 128.383 28.2672 145.782 28.2672 167.24C28.2672 168.561 28.3316 169.869 28.4602 171.164C19.9389 174.997 12.7126 181.227 7.65993 189.096C2.60723 196.966 -0.0543165 206.136 -0.00117254 215.492C-0.00117254 242.138 21.0875 263.744 47.0978 263.744C49.8312 263.741 52.5589 263.495 55.2489 263.01C55.1074 264.614 55.0238 266.232 55.0238 267.888C55.0238 297.788 78.6858 322.017 107.874 322.017C118.666 322.015 129.188 318.635 137.97 312.351C145.036 318.57 154.117 322.005 163.523 322.017C185.326 322.017 203.005 303.91 203.005 281.568C203.005 280.602 202.928 279.635 202.863 278.701H203.005C226.358 278.701 245.285 259.311 245.285 235.391C245.322 227.474 243.196 219.698 239.139 212.904C235.082 206.11 229.247 200.556 222.267 196.843Z" fill="url(#paint2_linear)"/>
<path d="M216.162 196.585C221.067 190.968 224.709 184.362 226.845 177.212C228.98 170.063 229.558 162.538 228.539 155.146C227.521 147.754 224.929 140.667 220.941 134.364C216.952 128.062 211.659 122.69 205.419 118.614C208.639 113.622 210.351 107.803 210.347 101.859C210.347 85.0214 197.023 71.3667 180.579 71.3667C167.069 71.3667 155.63 80.6395 152.021 93.3148C148.15 86.6625 142.612 81.1382 135.954 77.2886C129.297 73.439 121.751 71.3977 114.064 71.3667C89.5657 71.3667 69.7058 91.7102 69.7058 116.803C69.6993 122.149 70.6178 127.456 72.4207 132.488C71.52 132.417 70.6193 132.346 69.7058 132.346C50.0195 132.339 34.0969 148.662 34.0969 168.831C34.0969 170.075 34.1612 171.299 34.277 172.511C26.2742 176.105 19.4866 181.951 14.7398 189.338C9.99295 196.725 7.49152 205.335 7.53975 214.119C7.53975 239.135 27.3353 259.408 51.7501 259.408C54.3152 259.404 56.875 259.173 59.3995 258.718C59.2708 260.226 59.1871 261.753 59.1871 263.293C59.1871 291.357 81.3953 314.11 108.795 314.11C118.92 314.123 128.796 310.969 137.044 305.089C143.684 310.907 152.206 314.113 161.028 314.11C181.493 314.11 198.091 297.111 198.091 276.142C198.091 275.234 198.02 274.345 197.956 273.449H198.091C220.01 273.449 237.779 255.245 237.779 232.794C237.817 225.358 235.823 218.052 232.012 211.67C228.202 205.287 222.721 200.071 216.162 196.585Z" fill="#00897B"/>
<path d="M137.9 138.59H126.378V425.674H137.9V138.59Z" fill="url(#paint3_linear)"/>
<path d="M135.449 142.624H129.652V425.674H135.449V142.624Z" fill="#795548"/>
<path d="M176.688 174.587L129.126 226.033L133.379 229.978L180.941 178.531L176.688 174.587Z" fill="#795548"/>
<path d="M83.665 233.226L80.209 237.887L129.523 274.571L132.979 269.91L83.665 233.226Z" fill="#795548"/>
<path d="M149.898 228.76C142.118 220.467 137.78 209.519 137.765 198.138C137.765 181.745 146.662 167.375 160.031 159.275C157.023 154.879 155.413 149.674 155.412 144.344C155.412 129.336 167.983 117.17 183.494 117.17C196.27 117.17 207.034 125.431 210.437 136.734C214.266 130.701 219.562 125.741 225.829 122.319C232.095 118.897 239.127 117.125 246.264 117.17C269.38 117.17 288.082 135.304 288.082 157.67C288.081 162.448 287.209 167.184 285.508 171.647C286.357 171.583 287.207 171.525 288.082 171.525C306.636 171.525 321.671 186.075 321.671 204.028C321.669 205.124 321.611 206.219 321.497 207.308C336.332 213.494 346.722 227.768 346.722 244.393C346.722 266.689 328.065 284.758 305.008 284.758C302.588 284.745 300.174 284.53 297.79 284.114C297.912 285.46 297.989 286.814 297.989 288.193C297.989 313.208 277.036 333.487 251.186 333.487C241.711 333.505 232.446 330.696 224.571 325.419C218.191 330.659 210.189 333.511 201.938 333.487C182.638 333.487 166.973 318.337 166.973 299.65C166.973 298.838 167.037 298.045 167.095 297.246H166.973C146.296 297.246 129.53 281.02 129.53 261.012C129.53 246.951 137.823 234.766 149.898 228.76Z" fill="url(#paint4_linear)"/>
<path d="M153.701 228.612C146.265 220.668 142.125 210.188 142.121 199.299C142.121 183.608 150.639 169.856 163.435 162.104C160.54 157.892 158.99 152.899 158.989 147.786C158.989 133.422 171.026 121.771 185.868 121.771C198.092 121.771 208.385 129.678 211.66 140.498C215.324 134.732 220.389 129.991 226.38 126.719C232.372 123.448 239.094 121.752 245.918 121.791C268.042 121.791 285.972 139.144 285.972 160.551C285.976 165.125 285.146 169.661 283.521 173.935C284.331 173.877 285.142 173.813 285.972 173.813C303.728 173.813 318.139 187.745 318.139 204.924C318.139 205.972 318.086 207.02 317.978 208.062C332.177 213.984 342.123 227.646 342.123 243.556C342.123 264.892 324.251 282.219 302.197 282.219C299.883 282.206 297.574 281.999 295.294 281.601C295.41 282.889 295.481 284.178 295.481 285.506C295.481 309.451 275.421 328.861 250.685 328.861C241.604 328.88 232.723 326.188 225.176 321.128C219.071 326.147 211.413 328.881 203.515 328.861C185.032 328.861 170.061 314.362 170.061 296.473C170.061 295.7 170.126 294.94 170.184 294.173H170.061C150.266 294.173 134.221 278.643 134.221 259.492C134.189 246.024 142.121 234.36 153.701 228.612Z" fill="#009688"/>
<path d="M235.977 183.266H222.872V424.218H235.977V183.266Z" fill="url(#paint5_linear)"/>
<path d="M233.263 183.266H226.019V424.218H233.263V183.266Z" fill="#795548"/>
<path d="M190 209.003L184.827 214.083L227.783 257.973L232.956 252.894L190 209.003Z" fill="#795548"/>
<path d="M272.823 258.874L228.293 290.175L232.454 296.114L276.984 264.813L272.823 258.874Z" fill="#795548"/>
<path d="M523.171 225.538H200.078C192.699 225.538 186.723 228.863 186.723 232.974V470.55H536.546V232.974C536.546 228.863 530.55 225.538 523.171 225.538Z" fill="url(#paint6_linear)"/>
<path d="M360.606 89.5967L192.057 214.996V461.49H530.165V223.94L360.606 89.5967Z" fill="white"/>
<path d="M360.941 240.301C381.669 240.301 398.473 223.47 398.473 202.707C398.473 181.945 381.669 165.113 360.941 165.113C340.212 165.113 323.408 181.945 323.408 202.707C323.408 223.47 340.212 240.301 360.941 240.301Z" fill="url(#paint7_linear)"/>
<path d="M290.571 275.208H224.224V341.664H290.571V275.208Z" fill="url(#paint8_linear)"/>
<path d="M496.318 275.208H429.971V341.664H496.318V275.208Z" fill="url(#paint9_linear)"/>
<path d="M159.549 277.541L150.562 227.188L361.346 64.9229L570 230.429L564.21 275.608L361.314 122.255L159.549 277.541Z" fill="url(#paint10_linear)"/>
<path d="M159.961 267.43L153.778 232.639L361.294 70.4453L566.784 232.652L560.563 267.411L361.262 110.088L159.961 267.43Z" fill="#EC2527"/>
<path d="M401.156 350.39H320.062V461.49H401.156V350.39Z" fill="url(#paint11_linear)"/>
<path d="M398.807 352.742H322.404V461.49H398.807V352.742Z" fill="#EC2527"/>
<path d="M288.898 277.554H227.24V299.373H288.898V277.554Z" fill="#EC2527"/>
<path opacity="0.2" d="M288.898 299.373H227.24V339.313H288.898V299.373Z" fill="#EC2527"/>
<path d="M493.976 277.554H432.318V299.373H493.976V277.554Z" fill="#EC2527"/>
<path opacity="0.2" d="M493.976 299.373H432.318V339.313H493.976V299.373Z" fill="#EC2527"/>
<path d="M360.605 236.609C365.097 236.609 369.544 235.722 373.693 234C377.842 232.277 381.612 229.752 384.786 226.57C387.961 223.387 390.478 219.609 392.194 215.452C393.909 211.294 394.79 206.839 394.786 202.34H326.425C326.421 206.839 327.302 211.294 329.017 215.452C330.733 219.609 333.25 223.387 336.425 226.57C339.599 229.752 343.369 232.277 347.518 234C351.667 235.722 356.114 236.609 360.605 236.609Z" fill="#EC2527"/>
<path opacity="0.2" d="M360.605 236.274C369.671 236.274 378.365 232.667 384.775 226.246C391.185 219.825 394.786 211.117 394.786 202.037H326.425C326.425 211.117 330.026 219.825 336.436 226.246C342.846 232.667 351.54 236.274 360.605 236.274Z" fill="black"/>
<path opacity="0.2" d="M360.605 168.135C351.546 168.135 342.857 171.738 336.447 178.152C330.038 184.565 326.433 193.265 326.425 202.34H394.786C394.778 193.265 391.173 184.565 384.764 178.152C378.354 171.738 369.665 168.135 360.605 168.135Z" fill="#EC2527"/>
<path opacity="0.2" d="M360.605 168.135C351.546 168.135 342.857 171.738 336.447 178.152C330.038 184.565 326.433 193.265 326.425 202.34H394.786C394.778 193.265 391.173 184.565 384.764 178.152C378.354 171.738 369.665 168.135 360.605 168.135Z" fill="#EC2527"/>
<path d="M381.044 414.836C385.485 414.836 389.085 411.229 389.085 406.781C389.085 402.332 385.485 398.726 381.044 398.726C376.602 398.726 373.002 402.332 373.002 406.781C373.002 411.229 376.602 414.836 381.044 414.836Z" fill="url(#paint12_linear)"/>
<path d="M381.044 412.825C384.377 412.825 387.079 410.119 387.079 406.781C387.079 403.443 384.377 400.736 381.044 400.736C377.712 400.736 375.01 403.443 375.01 406.781C375.01 410.119 377.712 412.825 381.044 412.825Z" fill="#263238"/>
<path d="M408.522 445.715H310.007V477.935H408.522V445.715Z" fill="url(#paint13_linear)"/>
<path d="M406.508 448.396H312.014V475.918H406.508V448.396Z" fill="white"/>
<path d="M217.79 371.41C220.197 368.651 221.984 365.407 223.032 361.897C224.079 358.387 224.363 354.693 223.863 351.064C223.363 347.435 222.091 343.956 220.133 340.861C218.176 337.766 215.578 335.129 212.515 333.126C214.099 330.671 214.939 327.808 214.934 324.884C215.023 321.316 213.805 317.838 211.508 315.108C209.211 312.379 205.996 310.586 202.47 310.07C198.943 309.553 195.35 310.349 192.37 312.305C189.389 314.262 187.227 317.245 186.292 320.689C184.39 317.42 181.668 314.704 178.396 312.813C175.123 310.922 171.414 309.921 167.636 309.909C155.605 309.909 145.852 319.897 145.852 332.224C145.845 334.86 146.295 337.476 147.184 339.957C146.74 339.925 146.302 339.886 145.852 339.886C136.202 339.886 128.366 347.902 128.366 357.794C128.366 358.406 128.366 359.005 128.456 359.604C124.526 361.37 121.193 364.241 118.862 367.869C116.531 371.496 115.302 375.724 115.326 380.038C115.326 392.32 125.046 402.276 137.038 402.276C138.298 402.274 139.556 402.159 140.795 401.935C140.731 402.676 140.692 403.423 140.692 404.184C140.692 417.967 151.629 429.141 165.056 429.141C170.029 429.142 174.878 427.588 178.926 424.695C182.185 427.558 186.371 429.138 190.706 429.141C200.755 429.141 208.906 420.764 208.906 410.499C208.906 410.054 208.874 409.616 208.842 409.178H208.906C219.669 409.178 228.393 400.24 228.393 389.201C228.414 385.549 227.438 381.961 225.569 378.824C223.7 375.688 221.01 373.124 217.79 371.41Z" fill="url(#paint14_linear)"/>
<path d="M214.973 371.294C217.233 368.704 218.911 365.659 219.894 362.364C220.878 359.069 221.144 355.601 220.674 352.194C220.205 348.787 219.011 345.521 217.172 342.616C215.334 339.711 212.895 337.235 210.019 335.356C211.506 333.052 212.294 330.366 212.29 327.623C212.375 324.273 211.231 321.008 209.075 318.446C206.919 315.883 203.901 314.2 200.59 313.715C197.28 313.231 193.907 313.977 191.109 315.814C188.311 317.652 186.282 320.452 185.405 323.686C183.621 320.62 181.068 318.074 178.001 316.3C174.933 314.525 171.455 313.584 167.913 313.569C156.622 313.569 147.467 322.945 147.467 334.512C147.465 336.976 147.89 339.422 148.722 341.742C148.31 341.742 147.892 341.677 147.467 341.677C138.403 341.677 131.056 349.204 131.056 358.49C131.056 359.063 131.056 359.63 131.139 360.184C127.451 361.841 124.322 364.536 122.134 367.94C119.945 371.345 118.792 375.313 118.813 379.362C118.813 390.89 127.935 400.24 139.194 400.24C140.376 400.239 141.556 400.133 142.719 399.924C142.661 400.62 142.623 401.323 142.623 402.031C142.623 414.971 152.858 425.455 165.487 425.455C170.156 425.456 174.708 423.996 178.508 421.279C181.567 423.968 185.498 425.452 189.567 425.455C199.005 425.455 206.648 417.619 206.648 407.953C206.648 407.534 206.616 407.122 206.584 406.71H206.648C216.749 406.71 224.945 398.333 224.945 387.971C224.959 384.544 224.038 381.179 222.28 378.24C220.522 375.3 217.996 372.898 214.973 371.294Z" fill="#00897B"/>
<path d="M178.901 344.564H173.587V476.897H178.901V344.564Z" fill="url(#paint15_linear)"/>
<path d="M177.768 346.42H175.098V476.897H177.768V346.42Z" fill="#795548"/>
<path d="M196.786 361.129L174.86 384.845L176.819 386.662L198.745 362.946L196.786 361.129Z" fill="#795548"/>
<path d="M153.898 388.196L152.306 390.343L175.036 407.252L176.628 405.105L153.898 388.196Z" fill="#795548"/>
<path d="M184.439 386.128C180.85 382.305 178.851 377.256 178.848 372.009C178.872 368.386 179.833 364.832 181.637 361.692C183.441 358.553 186.026 355.935 189.142 354.095C187.747 352.067 187 349.662 186.999 347.2C186.999 340.279 192.789 334.673 199.943 334.673C202.707 334.641 205.407 335.501 207.644 337.126C209.882 338.75 211.537 341.054 212.366 343.694C214.131 340.912 216.572 338.625 219.46 337.047C222.349 335.469 225.591 334.652 228.881 334.673C239.535 334.673 248.181 343.05 248.181 353.36C248.182 355.563 247.781 357.746 246.997 359.804C247.39 359.804 247.782 359.746 248.181 359.746C256.731 359.746 263.666 366.454 263.666 374.728C263.667 375.234 263.641 375.74 263.589 376.243C266.998 377.621 269.922 379.981 271.991 383.024C274.061 386.067 275.182 389.657 275.214 393.338C275.214 403.616 266.606 411.949 255.985 411.949C254.87 411.947 253.758 411.852 252.659 411.665C252.717 412.309 252.749 412.909 252.749 413.547C252.749 425.075 243.099 434.425 231.171 434.425C226.797 434.437 222.519 433.142 218.883 430.707C215.936 433.114 212.245 434.42 208.442 434.399C199.538 434.399 192.326 427.414 192.326 418.798C192.326 418.425 192.326 418.057 192.384 417.69H192.326C182.792 417.69 175.065 410.209 175.065 400.987C175.088 397.881 175.978 394.843 177.634 392.217C179.291 389.591 181.648 387.482 184.439 386.128Z" fill="url(#paint16_linear)"/>
<path d="M186.183 386.057C182.745 382.392 180.831 377.553 180.831 372.524C180.851 369.06 181.766 365.659 183.487 362.654C185.209 359.649 187.678 357.142 190.655 355.377C189.32 353.436 188.604 351.135 188.602 348.778C188.602 342.154 194.148 336.786 200.993 336.786C203.636 336.759 206.218 337.583 208.358 339.137C210.499 340.69 212.084 342.891 212.882 345.415C214.572 342.754 216.909 340.566 219.673 339.057C222.438 337.547 225.54 336.766 228.689 336.786C238.886 336.786 247.153 344.783 247.153 354.655C247.154 356.763 246.77 358.853 246.021 360.822C246.394 360.822 246.767 360.764 247.153 360.764C255.336 360.764 261.95 367.208 261.95 375.108C261.949 375.593 261.923 376.077 261.872 376.558C265.136 377.877 267.935 380.135 269.916 383.047C271.897 385.96 272.971 389.395 273.002 392.919C273.002 402.753 264.761 410.731 254.596 410.731C253.518 410.731 252.442 410.641 251.38 410.46C251.437 411.053 251.47 411.652 251.47 412.258C251.47 423.296 242.225 432.234 230.818 432.234C226.632 432.246 222.538 431.007 219.058 428.677C216.243 430.987 212.713 432.245 209.073 432.234C200.556 432.234 193.633 425.552 193.633 417.303C193.633 416.949 193.633 416.595 193.691 416.247H193.633C184.511 416.247 177.112 409.087 177.112 400.259C177.146 397.279 178.015 394.368 179.618 391.857C181.222 389.347 183.496 387.337 186.183 386.057Z" fill="#009688"/>
<path d="M224.107 365.153H218.066V476.221H224.107V365.153Z" fill="url(#paint17_linear)"/>
<path d="M222.859 365.153H219.521V476.221H222.859V365.153Z" fill="#795548"/>
<path d="M202.917 377.021L200.532 379.362L220.335 399.595L222.719 397.254L202.917 377.021Z" fill="#795548"/>
<path d="M241.099 399.999L220.572 414.428L222.49 417.166L243.017 402.737L241.099 399.999Z" fill="#795548"/>
<path d="M57.3984 324.62L100.863 369.869L150.04 324.62" stroke="#37474F" stroke-miterlimit="10"/>
<path d="M43.6763 301.706H14.5137V482.136H43.6763V301.706Z" fill="url(#paint18_linear)"/>
<path d="M41.3863 305.14H16.7979V475.834H41.3863V305.14Z" fill="#F5F5F5"/>
<path d="M182.066 309.155H7.07715V340.659H182.066V309.155Z" fill="url(#paint19_linear)"/>
<path d="M9.36621 312.59L9.36621 337.218H179.781V312.59H9.36621Z" fill="#F5F5F5"/>
<path d="M29.3811 329.775C32.2236 329.775 34.5278 327.467 34.5278 324.62C34.5278 321.773 32.2236 319.465 29.3811 319.465C26.5386 319.465 24.2344 321.773 24.2344 324.62C24.2344 327.467 26.5386 329.775 29.3811 329.775Z" fill="url(#paint20_linear)"/>
<path d="M167.198 329.775C170.04 329.775 172.344 327.467 172.344 324.62C172.344 321.773 170.04 319.465 167.198 319.465C164.355 319.465 162.051 321.773 162.051 324.62C162.051 327.467 164.355 329.775 167.198 329.775Z" fill="url(#paint21_linear)"/>
<path d="M29.3815 328.628C31.5915 328.628 33.383 326.834 33.383 324.62C33.383 322.406 31.5915 320.612 29.3815 320.612C27.1714 320.612 25.3799 322.406 25.3799 324.62C25.3799 326.834 27.1714 328.628 29.3815 328.628Z" fill="#E6E6E6"/>
<path d="M167.198 328.628C169.408 328.628 171.199 326.834 171.199 324.62C171.199 322.406 169.408 320.612 167.198 320.612C164.988 320.612 163.196 322.406 163.196 324.62C163.196 326.834 164.988 328.628 167.198 328.628Z" fill="#E6E6E6"/>
<path d="M159.195 367.002H48.8232V442.035H159.195V367.002Z" fill="url(#paint22_linear)"/>
<path d="M158.333 367.866H49.6787V440.038H158.333V367.866Z" fill="#EC2527"/>
<path d="M138.891 379.316H62.2627V386.192H138.891V379.316Z" fill="white"/>
<path d="M130.598 392.778H76.2744V399.654H130.598V392.778Z" fill="white"/>
<path d="M135.172 406.239H69.4102V413.115H135.172V406.239Z" fill="white"/>
<path d="M139.746 419.701H63.1182V426.576H139.746V419.701Z" fill="white"/>
<path d="M473.332 392.095C471.146 389.587 469.522 386.638 468.571 383.447C467.619 380.257 467.362 376.899 467.817 373.601C468.272 370.303 469.428 367.14 471.208 364.328C472.987 361.515 475.348 359.118 478.131 357.297C476.691 355.065 475.927 352.462 475.931 349.803C475.845 346.556 476.95 343.389 479.038 340.903C481.127 338.418 484.052 336.785 487.261 336.315C490.471 335.845 493.74 336.57 496.452 338.353C499.163 340.135 501.128 342.852 501.973 345.988C503.702 343.016 506.177 340.548 509.151 338.829C512.126 337.11 515.498 336.199 518.932 336.187C529.869 336.187 538.734 345.273 538.734 356.473C538.738 358.86 538.329 361.23 537.525 363.477C537.923 363.477 538.329 363.413 538.734 363.413C547.516 363.413 554.631 370.701 554.631 379.697C554.631 380.251 554.631 380.799 554.547 381.34C558.121 382.944 561.152 385.555 563.272 388.853C565.391 392.151 566.509 395.995 566.488 399.918C566.488 411.085 557.648 420.139 546.75 420.139C545.604 420.137 544.461 420.033 543.334 419.829C543.392 420.474 543.43 421.183 543.43 421.872C543.43 434.406 533.517 444.561 521.28 444.561C516.757 444.564 512.347 443.151 508.664 440.521C505.699 443.125 501.89 444.561 497.946 444.561C488.811 444.561 481.399 436.97 481.399 427.607C481.399 427.201 481.399 426.802 481.457 426.402H481.399C471.614 426.402 463.682 418.276 463.682 408.25C463.667 404.932 464.558 401.673 466.259 398.825C467.96 395.978 470.406 393.65 473.332 392.095Z" fill="url(#paint23_linear)"/>
<path d="M475.892 391.992C473.838 389.638 472.313 386.869 471.418 383.874C470.524 380.878 470.282 377.725 470.709 374.628C471.136 371.531 472.222 368.562 473.893 365.921C475.564 363.28 477.782 361.029 480.396 359.321C479.043 357.227 478.325 354.785 478.331 352.291C478.252 349.243 479.291 346.273 481.251 343.941C483.211 341.609 485.956 340.078 488.967 339.637C491.979 339.195 495.047 339.875 497.592 341.546C500.137 343.218 501.982 345.766 502.778 348.708C504.4 345.918 506.722 343.601 509.514 341.987C512.306 340.373 515.47 339.517 518.694 339.506C528.987 339.506 537.28 348.031 537.28 358.548C537.282 360.788 536.897 363.012 536.141 365.12C536.521 365.12 536.894 365.062 537.28 365.062C545.521 365.062 552.199 371.906 552.199 380.347C552.199 380.869 552.199 381.385 552.122 381.888C555.476 383.394 558.321 385.844 560.31 388.939C562.3 392.035 563.349 395.643 563.329 399.325C563.329 409.809 555.036 418.302 544.801 418.302C543.722 418.301 542.646 418.204 541.584 418.012C541.642 418.657 541.674 419.301 541.674 419.946C541.674 431.706 532.365 441.243 520.881 441.243C516.637 441.243 512.499 439.917 509.044 437.447C506.264 439.89 502.693 441.239 498.995 441.243C490.419 441.243 483.465 434.122 483.465 425.333C483.465 424.952 483.465 424.579 483.522 424.205H483.465C474.278 424.205 466.834 416.575 466.834 407.167C466.818 404.051 467.654 400.989 469.251 398.314C470.847 395.639 473.144 393.453 475.892 391.992Z" fill="#00897B"/>
<path d="M513.514 367.685H508.683V488H513.514V367.685Z" fill="url(#paint24_linear)"/>
<path d="M512.145 369.374H509.713V488H512.145V369.374Z" fill="#795548"/>
<path d="M492.435 382.823L490.65 384.478L510.583 406.038L512.367 404.383L492.435 382.823Z" fill="#795548"/>
<path d="M531.42 407.331L510.75 422.707L512.2 424.663L532.87 409.287L531.42 407.331Z" fill="#795548"/>
<path d="M503.646 405.472C506.906 401.995 508.724 397.406 508.728 392.636C508.713 389.341 507.846 386.107 506.211 383.249C504.576 380.39 502.229 378.005 499.4 376.326C500.661 374.48 501.334 372.294 501.33 370.056C501.33 363.767 496.061 358.663 489.563 358.663C487.052 358.637 484.6 359.42 482.567 360.896C480.535 362.371 479.029 364.462 478.272 366.86C476.667 364.332 474.447 362.253 471.821 360.82C469.195 359.386 466.248 358.644 463.257 358.663C453.568 358.663 445.719 366.261 445.719 375.637C445.718 377.638 446.082 379.623 446.794 381.494C446.44 381.494 446.079 381.443 445.719 381.443C437.948 381.443 431.643 387.539 431.643 395.065C431.643 395.523 431.666 395.982 431.714 396.438C428.614 397.69 425.955 399.835 424.073 402.602C422.192 405.369 421.172 408.633 421.144 411.98C421.144 421.324 428.973 428.896 438.623 428.896C439.636 428.894 440.648 428.808 441.647 428.638C441.595 429.199 441.563 429.772 441.563 430.346C441.563 440.83 450.345 449.33 461.179 449.33C465.154 449.339 469.043 448.161 472.347 445.946C475.023 448.163 478.389 449.374 481.862 449.368C489.955 449.368 496.517 443.021 496.517 435.191C496.517 434.85 496.517 434.547 496.466 434.186H496.517C505.183 434.186 512.208 427.388 512.208 418.998C512.188 416.167 511.374 413.398 509.86 411.007C508.347 408.616 506.193 406.698 503.646 405.472Z" fill="url(#paint25_linear)"/>
<path d="M502.063 405.414C505.193 402.09 506.941 397.696 506.952 393.126C506.934 389.976 506.102 386.885 504.538 384.153C502.973 381.422 500.728 379.143 498.023 377.538C499.236 375.773 499.887 373.681 499.888 371.539C499.888 365.52 494.845 360.635 488.623 360.635C486.22 360.611 483.872 361.36 481.926 362.773C479.98 364.186 478.539 366.188 477.815 368.484C476.279 366.064 474.155 364.074 471.641 362.701C469.127 361.328 466.306 360.618 463.443 360.635C454.172 360.635 446.658 367.911 446.658 376.881C446.658 378.796 447.006 380.696 447.688 382.487C447.347 382.487 447.006 382.435 446.658 382.435C439.215 382.435 433.187 388.273 433.187 395.471C433.189 395.902 433.212 396.332 433.257 396.76C430.291 397.958 427.746 400.011 425.945 402.659C424.143 405.306 423.166 408.429 423.138 411.633C423.138 420.577 430.626 427.826 439.865 427.826C440.835 427.826 441.803 427.744 442.76 427.581C442.708 428.123 442.682 428.664 442.682 429.218C442.682 439.251 451.091 447.39 461.455 447.39C465.26 447.405 468.982 446.283 472.147 444.168C474.708 446.265 477.918 447.404 481.225 447.39C488.945 447.39 495.25 441.314 495.25 433.819C495.25 433.497 495.25 433.175 495.198 432.859H495.25C503.542 432.859 510.272 426.351 510.272 418.322C510.243 415.617 509.459 412.975 508.008 410.693C506.557 408.412 504.498 406.584 502.063 405.414Z" fill="#009688"/>
<path d="M473.08 386.411H467.586V487.394H473.08V386.411Z" fill="url(#paint26_linear)"/>
<path d="M471.756 386.411H468.72V487.394H471.756V386.411Z" fill="#795548"/>
<path d="M486.85 397.2L468.849 415.592L471.017 417.721L489.018 399.329L486.85 397.2Z" fill="#795548"/>
<path d="M452.141 418.11L450.396 420.6L469.06 433.718L470.804 431.229L452.141 418.11Z" fill="#795548"/>
</g>
<defs>
<linearGradient id="paint0_linear" x1="456.129" y1="153.07" x2="494.086" y2="153.07" gradientUnits="userSpaceOnUse">
<stop stop-color="#808080" stop-opacity="0.25"/>
<stop offset="0.54" stop-color="#808080" stop-opacity="0.12"/>
<stop offset="1" stop-color="#808080" stop-opacity="0.1"/>
</linearGradient>
<linearGradient id="paint1_linear" x1="58235.8" y1="7797.18" x2="58235.8" y2="0" gradientUnits="userSpaceOnUse">
<stop stop-color="#808080" stop-opacity="0.25"/>
<stop offset="0.54" stop-color="#808080" stop-opacity="0.12"/>
<stop offset="1" stop-color="#808080" stop-opacity="0.1"/>
</linearGradient>
<linearGradient id="paint2_linear" x1="85271.8" y1="144811" x2="85271.8" y2="41031.1" gradientUnits="userSpaceOnUse">
<stop stop-color="#808080" stop-opacity="0.25"/>
<stop offset="0.54" stop-color="#808080" stop-opacity="0.12"/>
<stop offset="1" stop-color="#808080" stop-opacity="0.1"/>
</linearGradient>
<linearGradient id="paint3_linear" x1="2493.04" y1="189781" x2="2493.04" y2="61881.8" gradientUnits="userSpaceOnUse">
<stop stop-color="#808080" stop-opacity="0.25"/>
<stop offset="0.54" stop-color="#808080" stop-opacity="0.12"/>
<stop offset="1" stop-color="#808080" stop-opacity="0.1"/>
</linearGradient>
<linearGradient id="paint4_linear" x1="114627" y1="125047" x2="114627" y2="52418.5" gradientUnits="userSpaceOnUse">
<stop stop-color="#808080" stop-opacity="0.25"/>
<stop offset="0.54" stop-color="#808080" stop-opacity="0.12"/>
<stop offset="1" stop-color="#808080" stop-opacity="0.1"/>
</linearGradient>
<linearGradient id="paint5_linear" x1="4896.2" y1="158809" x2="4896.2" y2="68710.1" gradientUnits="userSpaceOnUse">
<stop stop-color="#808080" stop-opacity="0.25"/>
<stop offset="0.54" stop-color="#808080" stop-opacity="0.12"/>
<stop offset="1" stop-color="#808080" stop-opacity="0.1"/>
</linearGradient>
<linearGradient id="paint6_linear" x1="251737" y1="193839" x2="251737" y2="100680" gradientUnits="userSpaceOnUse">
<stop stop-color="#808080" stop-opacity="0.25"/>
<stop offset="0.54" stop-color="#808080" stop-opacity="0.12"/>
<stop offset="1" stop-color="#808080" stop-opacity="0.1"/>
</linearGradient>
<linearGradient id="paint7_linear" x1="42437.9" y1="28203.4" x2="42437.9" y2="19430.5" gradientUnits="userSpaceOnUse">
<stop stop-color="#808080" stop-opacity="0.25"/>
<stop offset="0.54" stop-color="#808080" stop-opacity="0.12"/>
<stop offset="1" stop-color="#808080" stop-opacity="0.1"/>
</linearGradient>
<linearGradient id="paint8_linear" x1="26769.3" y1="35511" x2="26769.3" y2="28657.4" gradientUnits="userSpaceOnUse">
<stop stop-color="#808080" stop-opacity="0.25"/>
<stop offset="0.54" stop-color="#808080" stop-opacity="0.12"/>
<stop offset="1" stop-color="#808080" stop-opacity="0.1"/>
</linearGradient>
<linearGradient id="paint9_linear" x1="48193.7" y1="35511" x2="48193.7" y2="28657.4" gradientUnits="userSpaceOnUse">
<stop stop-color="#808080" stop-opacity="0.25"/>
<stop offset="0.54" stop-color="#808080" stop-opacity="0.12"/>
<stop offset="1" stop-color="#808080" stop-opacity="0.1"/>
</linearGradient>
<linearGradient id="paint10_linear" x1="235041" y1="91639.5" x2="235041" y2="21486.2" gradientUnits="userSpaceOnUse">
<stop stop-color="#808080" stop-opacity="0.25"/>
<stop offset="0.54" stop-color="#808080" stop-opacity="0.12"/>
<stop offset="1" stop-color="#808080" stop-opacity="0.1"/>
</linearGradient>
<linearGradient id="paint11_linear" x1="45774.4" y1="79915.8" x2="45774.4" y2="60761" gradientUnits="userSpaceOnUse">
<stop stop-color="#808080" stop-opacity="0.25"/>
<stop offset="0.54" stop-color="#808080" stop-opacity="0.12"/>
<stop offset="1" stop-color="#808080" stop-opacity="0.1"/>
</linearGradient>
<linearGradient id="paint12_linear" x1="9899.1" y1="10769.7" x2="9899.1" y2="10366.9" gradientUnits="userSpaceOnUse">
<stop stop-color="#808080" stop-opacity="0.25"/>
<stop offset="0.54" stop-color="#808080" stop-opacity="0.12"/>
<stop offset="1" stop-color="#808080" stop-opacity="0.1"/>
</linearGradient>
<linearGradient id="paint13_linear" x1="55324.6" y1="24342.4" x2="55324.6" y2="22731.5" gradientUnits="userSpaceOnUse">
<stop stop-color="#808080" stop-opacity="0.25"/>
<stop offset="0.54" stop-color="#808080" stop-opacity="0.12"/>
<stop offset="1" stop-color="#808080" stop-opacity="0.1"/>
</linearGradient>
<linearGradient id="paint14_linear" x1="48073" y1="86863.1" x2="48073" y2="64806.3" gradientUnits="userSpaceOnUse">
<stop stop-color="#808080" stop-opacity="0.25"/>
<stop offset="0.54" stop-color="#808080" stop-opacity="0.12"/>
<stop offset="1" stop-color="#808080" stop-opacity="0.1"/>
</linearGradient>
<linearGradient id="paint15_linear" x1="1629.34" y1="98280.1" x2="1629.34" y2="71104.3" gradientUnits="userSpaceOnUse">
<stop stop-color="#808080" stop-opacity="0.25"/>
<stop offset="0.54" stop-color="#808080" stop-opacity="0.12"/>
<stop offset="1" stop-color="#808080" stop-opacity="0.1"/>
</linearGradient>
<linearGradient id="paint16_linear" x1="50941.5" y1="73565.5" x2="50941.5" y2="58127.7" gradientUnits="userSpaceOnUse">
<stop stop-color="#808080" stop-opacity="0.25"/>
<stop offset="0.54" stop-color="#808080" stop-opacity="0.12"/>
<stop offset="1" stop-color="#808080" stop-opacity="0.1"/>
</linearGradient>
<linearGradient id="paint17_linear" x1="2294.04" y1="82447.6" x2="2294.04" y2="63302.9" gradientUnits="userSpaceOnUse">
<stop stop-color="#808080" stop-opacity="0.25"/>
<stop offset="0.54" stop-color="#808080" stop-opacity="0.12"/>
<stop offset="1" stop-color="#808080" stop-opacity="0.1"/>
</linearGradient>
<linearGradient id="paint18_linear" x1="1333.25" y1="135300" x2="1333.25" y2="84779.2" gradientUnits="userSpaceOnUse">
<stop stop-color="#808080" stop-opacity="0.25"/>
<stop offset="0.54" stop-color="#808080" stop-opacity="0.12"/>
<stop offset="1" stop-color="#808080" stop-opacity="0.1"/>
</linearGradient>
<linearGradient id="paint19_linear" x1="25730.4" y1="16963.7" x2="25730.4" y2="15423.8" gradientUnits="userSpaceOnUse">
<stop stop-color="#808080" stop-opacity="0.25"/>
<stop offset="0.54" stop-color="#808080" stop-opacity="0.12"/>
<stop offset="1" stop-color="#808080" stop-opacity="0.1"/>
</linearGradient>
<linearGradient id="paint20_linear" x1="494.336" y1="5595.88" x2="494.336" y2="5430.92" gradientUnits="userSpaceOnUse">
<stop stop-color="#808080" stop-opacity="0.25"/>
<stop offset="0.54" stop-color="#808080" stop-opacity="0.12"/>
<stop offset="1" stop-color="#808080" stop-opacity="0.1"/>
</linearGradient>
<linearGradient id="paint21_linear" x1="2837.22" y1="5595.88" x2="2837.22" y2="5430.92" gradientUnits="userSpaceOnUse">
<stop stop-color="#808080" stop-opacity="0.25"/>
<stop offset="0.54" stop-color="#808080" stop-opacity="0.12"/>
<stop offset="1" stop-color="#808080" stop-opacity="0.1"/>
</linearGradient>
<linearGradient id="paint22_linear" x1="8424.92" y1="47469.9" x2="27359.2" y2="47469.9" gradientUnits="userSpaceOnUse">
<stop stop-color="#808080" stop-opacity="0.25"/>
<stop offset="0.54" stop-color="#808080" stop-opacity="0.12"/>
<stop offset="1" stop-color="#808080" stop-opacity="0.1"/>
</linearGradient>
<linearGradient id="paint23_linear" x1="-51177.1" y1="81613.7" x2="-51177.1" y2="63384.3" gradientUnits="userSpaceOnUse">
<stop stop-color="#808080" stop-opacity="0.25"/>
<stop offset="0.54" stop-color="#808080" stop-opacity="0.12"/>
<stop offset="1" stop-color="#808080" stop-opacity="0.1"/>
</linearGradient>
<linearGradient id="paint24_linear" x1="-2119.45" y1="98662.4" x2="-2119.45" y2="76198.4" gradientUnits="userSpaceOnUse">
<stop stop-color="#808080" stop-opacity="0.25"/>
<stop offset="0.54" stop-color="#808080" stop-opacity="0.12"/>
<stop offset="1" stop-color="#808080" stop-opacity="0.1"/>
</linearGradient>
<linearGradient id="paint25_linear" x1="-52110.3" y1="69054.5" x2="-52110.3" y2="56291.4" gradientUnits="userSpaceOnUse">
<stop stop-color="#808080" stop-opacity="0.25"/>
<stop offset="0.54" stop-color="#808080" stop-opacity="0.12"/>
<stop offset="1" stop-color="#808080" stop-opacity="0.1"/>
</linearGradient>
<linearGradient id="paint26_linear" x1="-2762.26" y1="82786.3" x2="-2762.26" y2="66961.2" gradientUnits="userSpaceOnUse">
<stop stop-color="#808080" stop-opacity="0.25"/>
<stop offset="0.54" stop-color="#808080" stop-opacity="0.12"/>
<stop offset="1" stop-color="#808080" stop-opacity="0.1"/>
</linearGradient>
<clipPath id="clip0">
<rect width="570" height="488" fill="white"/>
</clipPath>
</defs>
</svg>
