<svg width="44" height="43" viewBox="0 0 44 43" fill="none" xmlns="http://www.w3.org/2000/svg">
<path d="M44 7.88574V0.720346C44 0.530308 43.9227 0.348053 43.7852 0.213676C43.6477 0.0792982 43.4612 0.00380587 43.2667 0.00380587H35.934V1.43689H41.4996L31.8204 10.888C29.1349 8.49823 25.6342 7.17232 22.0019 7.1692C20.4955 7.17082 18.9986 7.40292 17.5657 7.85708C17.4212 6.22573 16.803 4.66862 15.7839 3.36884C14.7647 2.06907 13.387 1.08069 11.8126 0.519929C10.2382 -0.0408301 8.53277 -0.15065 6.89673 0.203385C5.26069 0.55742 3.76212 1.36059 2.57723 2.51844C1.39235 3.67629 0.570434 5.14067 0.208133 6.73939C-0.154167 8.33811 -0.0417834 10.0047 0.532068 11.5431C1.10592 13.0815 2.11738 14.4279 3.44749 15.4238C4.77761 16.4197 6.37108 17.0237 8.04052 17.1649C7.10194 19.9822 7.10194 23.0178 8.04052 25.8351C6.37108 25.9763 4.77761 26.5803 3.44749 27.5762C2.11738 28.5721 1.10592 29.9185 0.532068 31.4569C-0.0417834 32.9953 -0.154167 34.6619 0.208133 36.2606C0.570434 37.8593 1.39235 39.3237 2.57723 40.4816C3.76212 41.6394 5.26069 42.4426 6.89673 42.7966C8.53277 43.1507 10.2382 43.0408 11.8126 42.4801C13.387 41.9193 14.7647 40.9309 15.7839 39.6312C16.803 38.3314 17.4212 36.7743 17.5657 35.1429C18.9986 35.5971 20.4955 35.8292 22.0019 35.8308C22.9946 35.831 23.9847 35.7326 24.957 35.537C25.0703 37.5861 25.9974 39.5112 27.5411 40.9025C29.0848 42.2937 31.1232 43.0414 33.2225 42.9863C35.3218 42.9312 37.3162 42.0777 38.7812 40.6075C40.2463 39.1373 41.0664 37.1664 41.0669 35.1143C41.0669 34.9242 40.9897 34.742 40.8522 34.6076C40.7146 34.4732 40.5281 34.3977 40.3337 34.3977H33.7342V30.077C34.297 29.3425 34.788 28.558 35.2008 27.7339V32.2481C35.2008 32.4381 35.278 32.6204 35.4155 32.7548C35.5531 32.8891 35.7396 32.9646 35.934 32.9646H43.2667C43.4612 32.9646 43.6477 32.8891 43.7852 32.7548C43.9227 32.6204 44 32.4381 44 32.2481C43.9972 30.2314 43.2036 28.2925 41.7823 26.8304C40.361 25.3682 38.4202 24.494 36.3593 24.3877C36.8311 22.1851 36.76 19.9045 36.1518 17.7342C35.5436 15.5638 34.4159 13.566 32.8617 11.9055L42.5335 2.44721V7.88574H44ZM36.6673 25.8422C38.1543 26.0045 39.5406 26.6561 40.5986 27.69C41.6566 28.7238 42.3234 30.0785 42.4895 31.5316H36.6673V25.8422ZM15.4832 5.66447C15.8128 6.36652 16.0209 7.11713 16.0991 7.88574H13.1367C13.0927 7.61911 13.0215 7.35746 12.9241 7.10472L15.4832 5.66447ZM11.6042 11.9127C11.8176 11.74 12.014 11.548 12.1908 11.3395L14.7499 12.7797C14.2841 13.4069 13.7199 13.9582 13.0781 14.4134L11.6042 11.9127ZM11.8095 15.13C11.0911 15.452 10.3229 15.6554 9.53638 15.7319V12.837C9.80924 12.794 10.077 12.7244 10.3356 12.6292L11.8095 15.13ZM12.9241 10.0999C13.0215 9.84711 13.0927 9.58545 13.1367 9.31882H16.0991C16.0209 10.0874 15.8128 10.838 15.4832 11.5401L12.9241 10.0999ZM14.7499 4.42486L12.1908 5.8651C12.014 5.65653 11.8176 5.46461 11.6042 5.29187L13.0781 2.79115C13.7199 3.24633 14.2841 3.79769 14.7499 4.42486V4.42486ZM9.53638 1.47271C10.3229 1.54915 11.0911 1.75254 11.8095 2.07461L10.3356 4.57533C10.077 4.48015 9.80924 4.41053 9.53638 4.36753V1.47271ZM11.7362 8.60228C11.7362 9.16916 11.5642 9.7233 11.2419 10.1946C10.9196 10.666 10.4615 11.0333 9.92555 11.2503C9.38961 11.4672 8.79986 11.524 8.2309 11.4134C7.66194 11.3028 7.13932 11.0298 6.72912 10.629C6.31892 10.2281 6.03957 9.71742 5.9264 9.16144C5.81323 8.60546 5.87131 8.02917 6.09331 7.50545C6.31531 6.98173 6.69125 6.5341 7.17359 6.21916C7.65593 5.90422 8.22301 5.73612 8.80312 5.73612C9.58102 5.73612 10.3271 6.03809 10.8771 6.5756C11.4272 7.11311 11.7362 7.84213 11.7362 8.60228ZM8.06985 1.47271V4.36753C7.79699 4.41053 7.52923 4.48015 7.27058 4.57533L5.79672 2.07461C6.51516 1.75254 7.28329 1.54915 8.06985 1.47271V1.47271ZM4.52816 2.79115L6.00203 5.29187C5.78859 5.46461 5.59219 5.65653 5.41542 5.8651L2.85631 4.42486C3.32212 3.79769 3.88636 3.24633 4.52816 2.79115V2.79115ZM2.12304 5.66447L4.68215 7.10472C4.58474 7.35746 4.5135 7.61911 4.4695 7.88574H1.5071C1.58531 7.11713 1.79345 6.36652 2.12304 5.66447V5.66447ZM2.12304 11.5401C1.79345 10.838 1.58531 10.0874 1.5071 9.31882H4.4695C4.5135 9.58545 4.58474 9.84711 4.68215 10.0999L2.12304 11.5401ZM2.85631 12.7797L5.41542 11.3395C5.59219 11.548 5.78859 11.74 6.00203 11.9127L4.52816 14.4134C3.88636 13.9582 3.32212 13.4069 2.85631 12.7797V12.7797ZM5.79672 15.13L7.27058 12.6292C7.52923 12.7244 7.79699 12.794 8.06985 12.837V15.7319C7.28329 15.6554 6.51516 15.452 5.79672 15.13V15.13ZM8.80312 27.2323C9.3164 27.2323 9.98368 28.2211 10.4456 29.9122C9.90659 30.0319 9.35589 30.0944 8.80312 30.0985C8.25034 30.0944 7.69964 30.0319 7.16059 29.9122C7.62255 28.2211 8.28983 27.2323 8.80312 27.2323ZM3.31827 29.6542C3.96135 30.1573 4.67501 30.5675 5.43741 30.8723C5.2736 31.8008 5.17803 32.7394 5.15144 33.6812H1.5071C1.66163 32.1859 2.2955 30.7766 3.31827 29.6542V29.6542ZM1.5071 35.1143H5.15144C5.17803 36.056 5.2736 36.9947 5.43741 37.9231C4.67501 38.2279 3.96135 38.6382 3.31827 39.1412C2.2955 38.0188 1.66163 36.6095 1.5071 35.1143V35.1143ZM4.41817 40.1229C4.83501 39.8175 5.28502 39.558 5.76005 39.349C5.93117 39.983 6.16955 40.5978 6.47132 41.1834C5.73177 40.9429 5.03802 40.5846 4.41817 40.1229ZM5.76005 29.4464C5.28502 29.2374 4.83501 28.9779 4.41817 28.6726C5.03802 28.2108 5.73177 27.8525 6.47132 27.6121C6.16955 28.1977 5.93117 28.8125 5.76005 29.4464V29.4464ZM8.80312 41.5631C8.28983 41.5631 7.62255 40.5743 7.16059 38.8833C7.69964 38.7635 8.25034 38.7011 8.80312 38.697C9.35589 38.7011 9.90659 38.7635 10.4456 38.8833C9.98368 40.5743 9.3164 41.5631 8.80312 41.5631ZM10.7536 37.486C9.47094 37.1898 8.13529 37.1898 6.85262 37.486C6.72015 36.7014 6.64176 35.9091 6.61798 35.1143H10.9883C10.9645 35.9091 10.8861 36.7014 10.7536 37.486ZM6.61798 33.6812C6.64176 32.8864 6.72015 32.094 6.85262 31.3094C8.13529 31.6056 9.47094 31.6056 10.7536 31.3094C10.8861 32.094 10.9645 32.8864 10.9883 33.6812H6.61798ZM11.1349 41.1834C11.4367 40.5978 11.6751 39.983 11.8462 39.349C12.3212 39.558 12.7712 39.8175 13.1881 40.1229C12.5682 40.5846 11.8745 40.9429 11.1349 41.1834ZM11.1349 27.6121C11.8745 27.8525 12.5682 28.2108 13.1881 28.6726C12.7712 28.9779 12.3212 29.2374 11.8462 29.4464C11.6751 28.8125 11.4367 28.1977 11.1349 27.6121ZM14.288 39.1412C13.6449 38.6382 12.9312 38.2279 12.1688 37.9231C12.3326 36.9947 12.4282 36.056 12.4548 35.1143H16.0991C15.9446 36.6095 15.3107 38.0188 14.288 39.1412V39.1412ZM12.4548 33.6812C12.4282 32.7394 12.3326 31.8008 12.1688 30.8723C12.9312 30.5675 13.6449 30.1573 14.288 29.6542C15.3107 30.7766 15.9446 32.1859 16.0991 33.6812H12.4548ZM39.5564 35.8308C39.4189 37.038 38.9354 38.1828 38.1614 39.1332C37.3874 40.0837 36.3544 40.8012 35.1814 41.2032C34.0085 41.6052 32.7431 41.6753 31.5312 41.4054C30.3192 41.1355 29.2099 40.5366 28.331 39.6777C27.452 38.8188 26.8392 37.7348 26.563 36.5505C26.2868 35.3662 26.3585 34.1298 26.7699 32.9835C27.1813 31.8373 27.9155 30.8279 28.8882 30.0716C29.8608 29.3152 31.0323 28.8427 32.2677 28.7084V35.1143C32.2677 35.3043 32.345 35.4866 32.4825 35.6209C32.62 35.7553 32.8065 35.8308 33.001 35.8308H39.5564ZM35.2008 21.5C35.2104 23.6314 34.6708 25.7309 33.6316 27.6049C33.5695 27.494 33.4784 27.401 33.3677 27.3356C33.2569 27.2701 33.1304 27.2345 33.001 27.2323C31.0529 27.2365 29.1719 27.9284 27.7046 29.1806C26.2372 30.4328 25.2823 32.1609 25.0157 34.0466C22.5435 34.6095 19.9579 34.4677 17.5657 33.6382C17.3788 31.6315 16.4784 29.7521 15.021 28.3266C13.5635 26.9011 11.6411 26.0195 9.58771 25.8351C8.54158 23.0354 8.54158 19.9646 9.58771 17.1649C11.6396 16.9796 13.5605 16.0987 15.0175 14.6749C16.4746 13.2511 17.376 11.374 17.5657 9.36898C19.5561 8.66547 21.6908 8.44151 23.7887 8.71611C25.8865 8.9907 27.8857 9.75575 29.6164 10.9463C31.3472 12.1369 32.7585 13.7179 33.7307 15.5551C34.7029 17.3924 35.2071 19.4317 35.2008 21.5Z" fill="#FFF8F8"/>
<path d="M17.6039 18.6333H14.6708C14.4763 18.6333 14.2898 18.7088 14.1523 18.8432C14.0148 18.9775 13.9375 19.1598 13.9375 19.3498V26.5152C13.9375 26.7053 14.0148 26.8875 14.1523 27.0219C14.2898 27.1563 14.4763 27.2318 14.6708 27.2318H17.6039C17.7984 27.2318 17.9849 27.1563 18.1224 27.0219C18.2599 26.8875 18.3372 26.7053 18.3372 26.5152V19.3498C18.3372 19.1598 18.2599 18.9775 18.1224 18.8432C17.9849 18.7088 17.7984 18.6333 17.6039 18.6333ZM16.8706 25.7987H15.4041V20.0664H16.8706V25.7987Z" fill="#FFF8F8"/>
<path d="M23.4701 15.7681H20.537C20.3425 15.7681 20.156 15.8436 20.0185 15.9779C19.881 16.1123 19.8037 16.2946 19.8037 16.4846V26.5162C19.8037 26.7062 19.881 26.8885 20.0185 27.0228C20.156 27.1572 20.3425 27.2327 20.537 27.2327H23.4701C23.6646 27.2327 23.8511 27.1572 23.9886 27.0228C24.1261 26.8885 24.2034 26.7062 24.2034 26.5162V16.4846C24.2034 16.2946 24.1261 16.1123 23.9886 15.9779C23.8511 15.8436 23.6646 15.7681 23.4701 15.7681ZM22.7368 25.7996H21.2703V17.2011H22.7368V25.7996Z" fill="#FFF8F8"/>
<path d="M29.3353 14.335H26.4022C26.2077 14.335 26.0212 14.4105 25.8837 14.5448C25.7462 14.6792 25.6689 14.8615 25.6689 15.0515V26.5161C25.6689 26.7062 25.7462 26.8884 25.8837 27.0228C26.0212 27.1572 26.2077 27.2327 26.4022 27.2327H29.3353C29.5298 27.2327 29.7163 27.1572 29.8539 27.0228C29.9914 26.8884 30.0686 26.7062 30.0686 26.5161V15.0515C30.0686 14.8615 29.9914 14.6792 29.8539 14.5448C29.7163 14.4105 29.5298 14.335 29.3353 14.335ZM28.6021 25.7996H27.1355V15.768H28.6021V25.7996Z" fill="#FFF8F8"/>
</svg>
