<svg width="114" height="98" viewBox="0 0 114 98" fill="none" xmlns="http://www.w3.org/2000/svg">
<g clip-path="url(#clip0)">
<path d="M56.4732 0.236888C55.5887 0.69036 52.0928 2.63623 49.5437 4.09478C49.0478 4.37904 44.5529 6.91374 39.5553 9.72933C34.5576 12.5449 30.2431 14.9781 29.9657 15.1338C29.6882 15.2894 29.3241 15.4925 29.1506 15.5838C28.9807 15.6718 28.835 15.7497 28.8316 15.7531C28.8073 15.7666 29.6501 17.3097 29.9553 17.8174C30.146 18.1321 30.6974 19.0559 31.1795 19.8647C31.6616 20.6735 32.0847 21.3875 32.1229 21.4452L32.1888 21.5568L32.3171 21.5028C32.6709 21.3639 34.1032 20.5754 36.694 19.1033C38.0258 18.3453 44.4524 14.7141 50.1819 11.4823C50.5912 11.2522 51.7286 10.6194 52.7136 10.0779C54.8085 8.92391 55.8039 8.36214 56.4941 7.94929C56.768 7.78347 56.9969 7.64809 57.0038 7.64809C57.0073 7.64809 58.7726 8.63964 60.9263 9.85115C63.0767 11.0661 66.049 12.7378 67.5263 13.5703C69.0039 14.4028 71.1681 15.6278 72.3298 16.2945C78.3265 19.7226 81.1807 21.2995 81.7669 21.5028L81.9125 21.5501L82.0027 21.3402C82.1519 20.9984 82.5124 20.3724 83.494 18.7515C84.0004 17.9155 84.5379 17.0119 84.6871 16.7446C84.9472 16.2878 85.1968 15.7734 85.1726 15.7564C85.1657 15.7531 84.9194 15.6211 84.6246 15.4654C83.7437 15.0052 81.9785 14.017 79.4744 12.5788C78.1773 11.8342 76.4292 10.8393 75.5899 10.3723C74.1263 9.55335 72.8328 8.82239 67.1969 5.62779C60.1461 1.63114 57.1876 0 56.9934 0C56.9587 0 56.7264 0.108292 56.4732 0.236888Z" fill="white"/>
<path d="M50.9202 20.968L50.8438 21.0188V28.0239V35.0255H56.9998H63.1559V28.0373C63.1559 21.0931 63.1559 21.0491 63.0866 20.9815C63.0172 20.9138 62.9721 20.9138 57.0069 20.9138C51.6242 20.9138 50.9895 20.9205 50.9202 20.968Z" fill="white"/>
<path d="M36.2429 40.2811C36.2429 42.2846 36.2499 42.6703 36.2915 42.7279C36.34 42.7923 36.5967 42.7923 57.0488 42.8023L77.7573 42.809V40.3557V37.9021H57.0001H36.2429V40.2811Z" fill="white"/>
<path d="M30.9363 46.1424V48.596H56.9826H83.0287V46.1424V43.6888H56.9826H30.9363V46.1424Z" fill="white"/>
<path d="M24 52.3015V54.755H57H90V52.3015V49.8481H57H24V52.3015Z" fill="white"/>
</g>
<g clip-path="url(#clip1)">
<path d="M60.5625 75.5553C60.5625 85.8059 60.5848 86.3103 60.9633 86.0278C61.6535 85.483 61.8316 85.4629 62.4328 85.8866L63.0117 86.2901V79.1269C63.0117 75.1719 63.1008 71.9434 63.2121 71.9434C63.3679 71.9434 75.614 86.1287 76.3711 87.2183C76.5492 87.4807 76.7718 87.6825 76.861 87.6825C76.9723 87.6825 77.039 82.8195 77.039 76.8871V66.0716L76.3934 66.3944C75.9035 66.6164 75.5696 66.6366 75.1465 66.4953C74.8125 66.3742 74.523 66.2935 74.4563 66.2935C74.4117 66.2935 74.3672 69.401 74.3672 73.1945C74.3672 79.7927 74.3449 80.0954 73.9664 79.6919C73.766 79.4498 71.7399 77.1897 69.4687 74.6473C65.1047 69.7238 61.364 65.5671 60.8742 65.0828C60.6071 64.8407 60.5625 66.4953 60.5625 75.5553Z" fill="white"/>
<path d="M101.754 66.1119C99.1042 66.4549 96.1875 67.9078 94.7847 69.5826C92.5136 72.2864 91.9125 76.4633 93.2706 80.0551C95.4081 85.705 102.756 87.9448 108.745 84.7566C110.081 84.0503 112.041 82.1133 112.753 80.7814C113.443 79.5305 114 77.3108 114 75.8782C114 74.4657 113.443 72.2461 112.775 70.995C111.662 68.9369 108.834 66.919 106.318 66.3339C104.938 66.011 103.09 65.9303 101.754 66.1119ZM105.851 68.1297C107.32 68.614 108.812 69.8651 109.502 71.1363C109.769 71.6407 110.104 72.7505 110.237 73.598C110.972 77.7749 108.923 82.2141 105.539 83.8082C104.181 84.4539 103.98 84.4942 102.489 84.3934C98.414 84.131 96.1875 81.407 96.1875 76.7055C96.1875 73.5577 97.3007 70.8941 99.3047 69.2597C101.197 67.706 103.468 67.3226 105.851 68.1297Z" fill="white"/>
<path d="M39.2542 66.5962C38.653 66.8181 38.5195 66.9997 38.5195 67.484C38.5195 68.049 38.564 68.0692 39.2765 67.9683L40.0559 67.8674L40.1226 74.385C40.1895 80.6402 40.2339 80.963 40.7238 82.0931C41.414 83.6871 42.9503 85.0795 44.6425 85.6445C45.8226 86.048 46.2902 86.0883 48.6726 86.0278C51.055 85.9672 51.5003 85.8866 52.6136 85.3821C54.8402 84.3934 56.3542 82.3554 56.7773 79.712C56.8886 78.925 57 75.9589 57 73.0936V67.8876L57.7792 68.0288C58.5586 68.1499 58.5586 68.1499 58.5586 67.4437C58.5586 66.7576 58.514 66.7374 57.4452 66.4953C56.0648 66.1926 55.33 66.3339 54.8402 67.0401C54.5062 67.5042 54.4616 68.271 54.4172 73.6384C54.3949 79.3085 54.3503 79.7927 53.905 80.842C53.0366 82.9002 51.2109 84.0907 48.873 84.1108C47.203 84.131 45.8003 83.5863 44.8207 82.5773C43.5515 81.2657 43.4179 80.4183 43.4179 73.9612C43.4179 70.1677 43.3288 67.9481 43.1729 67.5042C42.75 66.4146 40.8351 65.9706 39.2542 66.5962Z" fill="white"/>
<path d="M0.244922 67.0603C0.378515 67.4437 0.378515 67.8271 0.244922 68.1701L0 68.7149H2.89453H5.78907V76.5642V84.4337L6.30117 84.9584C6.90235 85.584 8.03789 85.7856 9.30703 85.483C10.1309 85.2611 10.2422 85.1803 10.2422 84.6558C10.2422 84.1108 10.1754 84.0503 9.57422 84.0503H8.90625V76.3826V68.7149H11.6449H14.3836V67.6051L14.3613 66.4953H7.19179H0.0222657L0.244922 67.0603Z" fill="white"/>
<path d="M17.3672 76.201C17.3672 84.9987 17.3895 85.9067 17.7234 85.7856C18.5917 85.483 19.1484 85.4427 19.9054 85.6243L20.707 85.8261V81.3062C20.707 77.9969 20.7738 76.7862 20.9741 76.7862C21.1078 76.7862 21.6422 77.1696 22.1542 77.6539C22.8 78.2592 23.4457 79.2883 24.3586 81.1851C25.739 83.9898 26.652 85.0593 28.2327 85.6444C28.9452 85.9067 28.9898 85.9067 29.7246 85.2611L30.4816 84.5951L29.502 84.0302C28.2105 83.2836 27.5648 82.3352 26.83 80.1156C26.2289 78.3197 25.2714 76.7458 24.6035 76.5239C24.0246 76.3019 24.225 76.0799 25.227 75.8378C26.407 75.5351 27.6984 74.5666 28.3441 73.4971C28.7226 72.8313 28.8339 72.3066 28.8339 71.1363C28.8339 68.9369 28.1214 67.9078 25.9395 66.9796C24.9152 66.5357 24.5589 66.4953 21.1078 66.4953H17.3672V76.201ZM23.9355 68.5938C25.0488 69.0176 25.6054 69.966 25.6054 71.4188C25.6054 72.5084 25.5386 72.6497 24.7594 73.3559C23.9133 74.1428 22.7332 74.5666 21.4417 74.5666H20.707V71.439V68.3113H21.9316C22.6219 68.3113 23.5125 68.4324 23.9355 68.5938Z" fill="white"/>
<path d="M33.3984 75.2728C33.3984 81.6289 33.4652 84.1714 33.6655 84.5548C34.1554 85.5435 35.803 85.9471 37.3839 85.4427C37.9406 85.2611 38.0741 85.1198 38.0741 84.6355C38.0741 84.1108 38.0074 84.0503 37.2949 84.0503H36.5155V75.2728V66.4953H34.957H33.3984V75.2728Z" fill="white"/>
<path d="M80.8242 75.293V84.0907L80.045 84.01C79.2879 83.9292 79.2656 83.9495 79.2656 84.5952C79.2656 85.1803 79.3548 85.2611 80.1117 85.4427C82.0489 85.9471 83.2958 85.483 83.7188 84.0907C83.8301 83.6871 83.9415 81.5886 83.9415 79.4498V75.5755H86.9028H89.8418L89.8641 74.6675L89.8864 73.7595H86.9028H83.9415V71.2372V68.7149H87.504H91.0665V67.6051V66.4953H85.9453H80.8242V75.293Z" fill="white"/>
<path d="M46.9804 90.2653C46.9804 90.4671 46.8691 90.7293 46.7132 90.8706C46.5128 91.0522 46.5351 91.1127 46.8468 91.1127C47.2253 91.1127 48.0714 90.3863 48.0937 90.0432C48.0937 89.9626 47.8488 89.9021 47.537 89.9021C47.1585 89.9021 46.9804 90.0029 46.9804 90.2653Z" fill="white"/>
<path d="M23.2676 94.2404V96.9645H23.9801H24.6926L24.7594 94.2404L24.8262 91.5163H24.0469H23.2676V94.2404Z" fill="white"/>
<path d="M30.6152 94.2404V96.9645H31.2833H31.9512L31.8843 95.794C31.8399 95.1282 31.8399 94.3412 31.8843 94.0184C31.9512 93.3727 31.8399 93.2517 33.7325 96.2179L34.2223 97.0048L35.3801 95.2089L36.5156 93.4333V95.1887V96.9645H37.2504H37.9629V94.2404V91.5163H37.0277C36.2929 91.5163 36.0703 91.597 36.0703 91.8593C36.0703 92.2427 34.5563 94.7447 34.3336 94.7447C34.0664 94.7447 32.5524 92.0409 32.6637 91.7585C32.7304 91.597 32.4633 91.5163 31.684 91.5163H30.6152V94.2404Z" fill="white"/>
<path d="M45.2661 91.8998C44.1751 92.3638 43.6406 93.1709 43.6406 94.3413C43.6406 95.5318 44.1751 96.3187 45.2661 96.7829C46.4685 97.2671 47.7153 97.2671 48.8731 96.7627C50.7656 95.9353 51.1219 93.7762 49.6078 92.384C48.9399 91.7786 48.6504 91.6777 47.5149 91.597C46.5129 91.5163 45.9786 91.597 45.2661 91.8998ZM47.7153 92.5051C49.2293 93.0296 49.7192 94.7044 48.6504 95.6529C47.8935 96.359 46.2903 96.359 45.5333 95.6529C44.5759 94.8054 44.843 93.2315 46.0453 92.6462C46.7578 92.283 47.0028 92.2629 47.7153 92.5051Z" fill="white"/>
<path d="M56.3988 93.978C57.1336 95.3502 57.7348 96.5811 57.7348 96.7021C57.7348 96.8635 58.0466 96.9645 58.5586 96.9645C59.093 96.9645 59.3824 96.8635 59.3824 96.7021C59.3824 96.5406 59.9392 95.3502 60.6294 94.0386C61.3419 92.7472 61.8985 91.6374 61.8985 91.597C61.8985 91.5566 61.5422 91.5163 61.1192 91.5163C60.6071 91.5163 60.3399 91.6172 60.3399 91.7988C60.3399 91.9401 59.9392 92.8278 59.4716 93.756L58.5809 95.451L57.6903 93.7762C57.2005 92.848 56.8665 91.9601 56.9333 91.7988C57.0223 91.5769 56.8219 91.5163 56.0649 91.5163H55.063L56.3988 93.978Z" fill="white"/>
<path d="M67.2422 91.5566C67.2422 91.597 67.1976 92.8278 67.1753 94.3009L67.1309 96.9645H69.58C70.9383 96.9645 72.252 97.025 72.5414 97.0855C72.9645 97.2066 73.0312 97.1461 73.0312 96.6416V96.0564L70.7824 96.1169L68.5559 96.1774L68.6226 95.4107L68.6895 94.6439L70.2035 94.6842C71.6062 94.7044 71.6952 94.6842 71.6952 94.2404C71.6952 93.7965 71.6508 93.7965 70.1366 93.8973L68.578 93.9981V93.2517V92.5252H70.6934C72.8086 92.5252 72.8086 92.5252 72.8086 92.0207V91.5163H70.0253C68.489 91.5163 67.2422 91.5364 67.2422 91.5566Z" fill="white"/>
<path d="M78.5531 94.2404L78.6199 96.9645H79.3324H80.0449V94.2404V91.5163H79.2656H78.4863L78.5531 94.2404Z" fill="white"/>
<path d="M86.925 91.718C86.3015 91.9401 85.7226 92.6867 85.7226 93.292C85.7226 94.1394 86.591 94.6842 88.2387 94.8255C89.8863 94.987 90.3984 95.3098 89.8417 95.8345C89.2183 96.3792 86.3905 96.1371 86.3905 95.5116C86.3905 95.1282 86.0343 95.3905 85.8117 95.9353C85.5667 96.5003 85.5667 96.5003 86.7245 96.8434C88.2164 97.2671 89.1961 97.2469 90.1757 96.803C91.0664 96.3995 91.4894 95.7537 91.3336 95.0273C91.1777 94.3009 90.4206 93.9175 88.7062 93.7359C87.8824 93.635 87.1253 93.4534 87.0363 93.292C86.4797 92.4849 89.0848 92.162 90.198 92.9086L90.7769 93.3122L91.0441 92.7875C91.378 92.1419 91.2 92.0208 89.6637 91.718C88.3944 91.4759 87.5706 91.4759 86.925 91.718Z" fill="white"/>
</g>
<defs>
<clipPath id="clip0">
<rect width="66" height="54.8136" fill="white" transform="translate(24)"/>
</clipPath>
<clipPath id="clip1">
<rect width="114" height="32.1538" fill="white" transform="translate(0 65)"/>
</clipPath>
</defs>
</svg>
