<svg width="229" height="47" viewBox="0 0 229 47" fill="none" xmlns="http://www.w3.org/2000/svg">
<g clip-path="url(#clip0)">
<path d="M151.656 15.2772C151.656 30.1135 151.689 30.8436 152.236 30.4347C153.235 29.6462 153.493 29.6171 154.363 30.2304L155.201 30.8144V20.4465C155.201 14.7223 155.33 10.0494 155.491 10.0494C155.717 10.0494 173.441 30.5808 174.537 32.1578C174.795 32.5375 175.117 32.8296 175.246 32.8296C175.407 32.8296 175.504 25.791 175.504 17.2047V1.55068L174.569 2.01797C173.86 2.33922 173.377 2.36843 172.765 2.16398C172.281 1.98876 171.862 1.87194 171.766 1.87194C171.701 1.87194 171.637 6.36956 171.637 11.8601C171.637 21.4103 171.605 21.8483 171.057 21.2643C170.767 20.9139 167.834 17.6428 164.547 13.9629C158.231 6.83683 152.816 0.820543 152.107 0.119617C151.721 -0.230849 151.656 2.16398 151.656 15.2772Z" fill="white"/>
<path d="M211.276 1.60939C207.44 2.10588 203.219 4.20866 201.189 6.63272C197.902 10.5462 197.031 16.5917 198.997 21.7903C202.091 29.9678 212.726 33.2096 221.395 28.5951C223.328 27.5729 226.164 24.7693 227.195 22.8416C228.195 21.031 229 17.8183 229 15.7448C229 13.7004 228.195 10.4878 227.228 8.67709C225.616 5.69814 221.523 2.7776 217.882 1.93066C215.884 1.46337 213.209 1.34655 211.276 1.60939ZM217.205 4.52994C219.332 5.23085 221.491 7.04158 222.49 8.88153C222.877 9.61165 223.361 11.218 223.554 12.4446C224.617 18.4901 221.653 24.9152 216.754 27.2224C214.788 28.1571 214.498 28.2154 212.339 28.0694C206.441 27.6897 203.219 23.747 203.219 16.9422C203.219 12.3862 204.83 8.53106 207.731 6.16543C210.47 3.91661 213.757 3.36171 217.205 4.52994Z" fill="white"/>
<path d="M120.815 2.31001C119.945 2.63128 119.752 2.89412 119.752 3.59505C119.752 4.41281 119.816 4.442 120.848 4.29599L121.976 4.14995L122.072 13.5833C122.169 22.6369 122.233 23.1042 122.942 24.7397C123.941 27.0469 126.165 29.0622 128.614 29.8799C130.322 30.464 130.999 30.5223 134.447 30.4347C137.895 30.3471 138.54 30.2304 140.151 29.5002C143.374 28.0692 145.565 25.1194 146.178 21.2934C146.339 20.1544 146.5 15.8613 146.5 11.7141V4.17916L147.628 4.3836C148.756 4.55882 148.756 4.55882 148.756 3.53663C148.756 2.54365 148.691 2.51446 147.144 2.16399C145.146 1.72591 144.083 1.93035 143.374 2.95254C142.891 3.62426 142.826 4.73406 142.762 12.5027C142.729 20.7094 142.665 21.4103 142.02 22.929C140.764 25.9079 138.121 27.6311 134.737 27.6602C132.32 27.6894 130.29 26.9009 128.872 25.4406C127.035 23.5422 126.842 22.3157 126.842 12.97C126.842 7.47936 126.713 4.26678 126.487 3.62426C125.875 2.04717 123.103 1.40465 120.815 2.31001Z" fill="white"/>
<path d="M64.3545 2.98182C64.5479 3.53672 64.5479 4.09162 64.3545 4.5881L64 5.37664H68.1894H72.3789V16.7375V28.1276L73.1201 28.887C73.9902 29.7924 75.6338 30.0843 77.4707 29.6462C78.6631 29.3251 78.8242 29.2082 78.8242 28.4489C78.8242 27.6602 78.7275 27.5726 77.8574 27.5726H76.8906V16.4747V5.37664H80.8545H84.8184V3.77036L84.7861 2.16406H74.4092H64.0322L64.3545 2.98182Z" fill="white"/>
<path d="M89.1367 16.2118C89.1367 28.9453 89.169 30.2595 89.6523 30.0843C90.9091 29.6462 91.7148 29.5879 92.8104 29.8507L93.9707 30.1428V23.6008C93.9707 18.8111 94.0673 17.0588 94.3573 17.0588C94.5507 17.0588 95.3242 17.6137 96.0653 18.3147C97 19.1908 97.9346 20.6802 99.2558 23.4256C101.254 27.485 102.575 29.033 104.863 29.8798C105.894 30.2595 105.959 30.2595 107.022 29.3251L108.118 28.3611L106.7 27.5435C104.831 26.4629 103.896 25.0902 102.833 21.8777C101.963 19.2784 100.577 17.0004 99.6103 16.6791C98.7725 16.3578 99.0625 16.0366 100.513 15.6861C102.221 15.248 104.09 13.8462 105.024 12.2983C105.572 11.3345 105.733 10.5752 105.733 8.88129C105.733 5.6979 104.702 4.20844 101.544 2.865C100.061 2.22246 99.5458 2.16406 94.5507 2.16406H89.1367V16.2118ZM98.6434 5.20142C100.255 5.81472 101.06 7.18738 101.06 9.29016C101.06 10.8672 100.964 11.0717 99.836 12.0939C98.6113 13.2329 96.9034 13.8462 95.0341 13.8462H93.9707V9.31937V4.79253H95.7431C96.7422 4.79253 98.0312 4.96778 98.6434 5.20142Z" fill="white"/>
<path d="M112.34 14.8684C112.34 24.068 112.436 27.7479 112.726 28.3028C113.435 29.7339 115.82 30.3181 118.108 29.5879C118.914 29.3251 119.107 29.1206 119.107 28.4197C119.107 27.6602 119.011 27.5726 117.979 27.5726H116.851V14.8684V2.16406H114.596H112.34V14.8684Z" fill="white"/>
<path d="M180.982 14.8976V27.6312L179.855 27.5143C178.759 27.3974 178.727 27.4267 178.727 28.3613C178.727 29.2082 178.856 29.3251 179.951 29.5879C182.755 30.3181 184.56 29.6462 185.172 27.6312C185.333 27.047 185.494 24.0096 185.494 20.9139V15.3065H189.78H194.034L194.066 13.9922L194.099 12.678H189.78H185.494V9.02732V5.37664H190.65H195.807V3.77036V2.16406H188.395H180.982V14.8976Z" fill="white"/>
<path d="M131.998 36.5682C131.998 36.8603 131.837 37.2398 131.612 37.4443C131.322 37.7071 131.354 37.7947 131.805 37.7947C132.353 37.7947 133.577 36.7434 133.61 36.2468C133.61 36.1301 133.255 36.0425 132.804 36.0425C132.256 36.0425 131.998 36.1884 131.998 36.5682Z" fill="white"/>
<path d="M97.6768 42.3216V46.2644H98.708H99.7393L99.836 42.3216L99.9326 38.3789H98.8048H97.6768V42.3216Z" fill="white"/>
<path d="M108.312 42.3216V46.2644H109.278H110.245L110.148 44.5703C110.084 43.6065 110.084 42.4676 110.148 42.0003C110.245 41.0658 110.084 40.8906 112.823 45.1837L113.532 46.3227L115.208 43.7234L116.852 41.1534V43.6942V46.2644H117.915H118.946V42.3216V38.3789H117.593C116.529 38.3789 116.207 38.4956 116.207 38.8753C116.207 39.4303 114.016 43.0516 113.693 43.0516C113.307 43.0516 111.115 39.1382 111.276 38.7294C111.373 38.4956 110.986 38.3789 109.858 38.3789H108.312V42.3216Z" fill="white"/>
<path d="M129.517 38.9338C127.938 39.6055 127.164 40.7737 127.164 42.4676C127.164 44.1907 127.938 45.3297 129.517 46.0015C131.257 46.7024 133.062 46.7024 134.737 45.9722C137.477 44.7748 137.992 41.6498 135.801 39.6347C134.834 38.7584 134.415 38.6125 132.772 38.4956C131.321 38.3789 130.548 38.4956 129.517 38.9338ZM133.062 39.81C135.253 40.5692 135.962 42.9933 134.415 44.366C133.319 45.388 130.999 45.388 129.903 44.366C128.518 43.1394 128.904 40.8613 130.645 40.0143C131.676 39.4886 132.03 39.4595 133.062 39.81Z" fill="white"/>
<path d="M145.63 41.9419C146.693 43.9279 147.563 45.7094 147.563 45.8847C147.563 46.1182 148.015 46.2644 148.756 46.2644C149.529 46.2644 149.948 46.1182 149.948 45.8847C149.948 45.6509 150.754 43.9279 151.753 42.0295C152.784 40.1604 153.59 38.5541 153.59 38.4956C153.59 38.4373 153.074 38.3789 152.462 38.3789C151.721 38.3789 151.334 38.5249 151.334 38.7877C151.334 38.9922 150.754 40.2771 150.077 41.6206L148.788 44.0739L147.499 41.6498C146.79 40.3064 146.307 39.0213 146.403 38.7877C146.532 38.4665 146.242 38.3789 145.146 38.3789H143.696L145.63 41.9419Z" fill="white"/>
<path d="M161.324 38.4373C161.324 38.4956 161.26 40.2771 161.227 42.4092L161.163 46.2644H164.708C166.674 46.2644 168.575 46.352 168.994 46.4396C169.606 46.6148 169.703 46.5272 169.703 45.797V44.95L166.448 45.0376L163.226 45.1252L163.322 44.0155L163.419 42.9057L165.61 42.964C167.641 42.9933 167.769 42.964 167.769 42.3216C167.769 41.6791 167.705 41.6791 165.514 41.825L163.258 41.971V40.8906V39.8391H166.319C169.381 39.8391 169.381 39.8391 169.381 39.1089V38.3789H165.352C163.129 38.3789 161.324 38.408 161.324 38.4373Z" fill="white"/>
<path d="M177.695 42.3216L177.792 46.2644H178.823H179.855V42.3216V38.3789H178.726H177.599L177.695 42.3216Z" fill="white"/>
<path d="M189.812 38.671C188.91 38.9924 188.072 40.073 188.072 40.9491C188.072 42.1757 189.329 42.9642 191.714 43.1687C194.098 43.4024 194.84 43.8696 194.034 44.629C193.131 45.4175 189.039 45.0671 189.039 44.1617C189.039 43.6068 188.523 43.9865 188.201 44.775C187.846 45.5927 187.846 45.5927 189.522 46.0893C191.681 46.7026 193.099 46.6734 194.517 46.0308C195.806 45.4468 196.419 44.5121 196.193 43.4608C195.968 42.4094 194.872 41.8545 192.39 41.5917C191.198 41.4455 190.102 41.1827 189.973 40.9491C189.168 39.7809 192.938 39.3136 194.549 40.3942L195.387 40.9784L195.774 40.219C196.257 39.2845 196 39.1093 193.776 38.671C191.939 38.3206 190.747 38.3206 189.812 38.671Z" fill="white"/>
</g>
<g clip-path="url(#clip1)">
<path d="M27.2522 0.198799C26.5099 0.579356 23.5761 2.21235 21.437 3.43637C21.0208 3.67493 17.2486 5.80207 13.0545 8.16494C8.86043 10.5278 5.23971 12.5697 5.00687 12.7004C4.77402 12.831 4.46842 13.0014 4.32289 13.0781C4.18026 13.1519 4.05803 13.2173 4.05512 13.2201C4.03473 13.2315 4.74201 14.5265 4.99813 14.9525C5.15821 15.2166 5.62098 15.9919 6.02556 16.6706C6.43013 17.3494 6.7852 17.9486 6.81723 17.997L6.87253 18.0907L6.98022 18.0453C7.27709 17.9287 8.47915 17.2671 10.6533 16.0316C11.771 15.3955 17.1643 12.3482 21.9725 9.63604C22.316 9.44292 23.2705 8.91186 24.0971 8.45746C25.8551 7.48902 26.6905 7.01758 27.2697 6.67111C27.4996 6.53195 27.6917 6.41834 27.6975 6.41834C27.7005 6.41834 29.1819 7.25046 30.9893 8.26717C32.7939 9.28673 35.2883 10.6897 36.5281 11.3883C37.7681 12.087 39.5843 13.115 40.5592 13.6745C45.5917 16.5514 47.9869 17.8748 48.4789 18.0453L48.6011 18.085L48.6768 17.9089C48.802 17.6221 49.1046 17.0967 49.9283 15.7364C50.3533 15.0348 50.8044 14.2766 50.9295 14.0522C51.1478 13.6688 51.3573 13.2371 51.337 13.2229C51.3312 13.2201 51.1245 13.1093 50.8771 12.9787C50.1378 12.5925 48.6564 11.7632 46.555 10.5562C45.4665 9.9314 43.9995 9.09645 43.2951 8.70453C42.0669 8.01725 40.9813 7.40382 36.2516 4.72288C30.3345 1.36887 27.8518 0 27.6887 0C27.6596 0 27.4647 0.0908799 27.2522 0.198799Z" fill="white"/>
<path d="M22.5915 17.5963L22.5273 17.6389V23.5176V29.3934H27.6936H32.8598V23.5289C32.8598 17.7013 32.8598 17.6644 32.8016 17.6076C32.7434 17.5508 32.7056 17.5508 27.6995 17.5508C23.1823 17.5508 22.6497 17.5564 22.5915 17.5963Z" fill="white"/>
<path d="M10.2744 33.8041C10.2744 35.4854 10.2802 35.8092 10.3152 35.8575C10.3559 35.9115 10.5713 35.9115 27.7349 35.9199L45.1136 35.9256V33.8667V31.8076H27.694H10.2744V33.8041Z" fill="white"/>
<path d="M5.82129 38.7231V40.7822H27.6796H49.5377V38.7231V36.6641H27.6796H5.82129V38.7231Z" fill="white"/>
<path d="M0 43.8919V45.9509H27.6939H55.3878V43.8919V41.833H27.6939H0V43.8919Z" fill="white"/>
</g>
<defs>
<clipPath id="clip0">
<rect width="165" height="46.5385" fill="white" transform="translate(64)"/>
</clipPath>
<clipPath id="clip1">
<rect width="55.3878" height="46" fill="white"/>
</clipPath>
</defs>
</svg>
