<svg width="32" height="36" viewBox="0 0 32 36" fill="none" xmlns="http://www.w3.org/2000/svg">
<path d="M15.6126 10.3413L16.0003 10.0251L16.388 10.3413C16.5692 10.493 16.7891 10.5749 17.015 10.5749C17.2409 10.5749 17.4607 10.493 17.6419 10.3413C17.8256 10.194 17.9623 9.984 18.0316 9.74247C18.101 9.50094 18.0994 9.24071 18.027 9.00031L17.8792 8.48791L18.2665 8.17051C18.4483 8.02161 18.5836 7.81186 18.6532 7.57123C18.7227 7.3306 18.7228 7.0714 18.6535 6.83069C18.5843 6.58997 18.4491 6.38004 18.2674 6.23091C18.0858 6.08177 17.8668 6.00106 17.6419 6.0003H17.1619L17.0136 5.4879C16.9435 5.24782 16.8078 5.03878 16.6258 4.89058C16.4438 4.74238 16.2249 4.6626 16.0003 4.6626C15.7757 4.6626 15.5567 4.74238 15.3748 4.89058C15.1928 5.03878 15.0571 5.24782 14.987 5.4879L14.8376 6.0003H14.3576C14.1325 6.00055 13.9133 6.0809 13.7312 6.22985C13.5492 6.3788 13.4137 6.58871 13.3442 6.82955C13.2746 7.07038 13.2746 7.32979 13.3441 7.57066C13.4135 7.81152 13.549 8.02148 13.7309 8.17051L14.1181 8.48791L13.9736 9.00031C13.9043 9.24122 13.9045 9.50063 13.9742 9.74141C14.0438 9.98219 14.1794 10.192 14.3616 10.3408C14.5437 10.4896 14.763 10.5698 14.9881 10.5699C15.2131 10.57 15.4325 10.49 15.6147 10.3413H15.6126ZM15.2254 7.2003C15.338 7.2003 15.4477 7.16018 15.5388 7.0857C15.6299 7.01122 15.6978 6.9062 15.7326 6.7857L15.9992 5.8515V5.8587L16.2659 6.7857C16.3007 6.9062 16.3685 7.01122 16.4596 7.0857C16.5507 7.16018 16.6605 7.2003 16.7731 7.2003H17.6398L16.9384 7.7733C16.8475 7.84776 16.7797 7.95269 16.745 8.07306C16.7102 8.19344 16.7101 8.3231 16.7448 8.44351L17.0115 9.37111L16.3107 8.79811C16.2196 8.72357 16.1098 8.68342 15.9971 8.68342C15.8844 8.68342 15.7746 8.72357 15.6835 8.79811L14.9827 9.37051L15.2494 8.44351C15.284 8.3231 15.284 8.19344 15.2492 8.07306C15.2145 7.95269 15.1467 7.84776 15.0558 7.7733L14.3587 7.2003H15.2254Z" fill="#FFF8F8"/>
<path d="M31.4667 26.4H29.8667V24.6C29.8667 24.4409 29.8105 24.2883 29.7105 24.1757C29.6104 24.0632 29.4748 24 29.3333 24H27.7333V21.189C28.3709 20.8488 28.9096 20.3123 29.2872 19.6417C29.6648 18.9711 29.8657 18.1938 29.8667 17.4V16.8H30.4C30.7875 16.8008 31.162 16.6429 31.4537 16.3559C31.7454 16.0689 31.9343 15.6724 31.9853 15.2402C32.0362 14.808 31.9456 14.3698 31.7305 14.0072C31.5153 13.6446 31.1903 13.3824 30.816 13.2696C30.9146 12.9967 30.952 12.7008 30.9248 12.4078C30.8976 12.1149 30.8068 11.834 30.6602 11.5899C30.5137 11.3458 30.316 11.1461 30.0846 11.0083C29.8532 10.8705 29.5951 10.799 29.3333 10.8H22.9333C22.6715 10.799 22.4135 10.8705 22.1821 11.0083C21.9507 11.1461 21.753 11.3458 21.6064 11.5899C21.4599 11.834 21.369 12.1149 21.3419 12.4078C21.3147 12.7008 21.3521 12.9967 21.4507 13.2696C21.0764 13.3824 20.7513 13.6446 20.5362 14.0072C20.321 14.3698 20.2305 14.808 20.2814 15.2402C20.3323 15.6724 20.5213 16.0689 20.8129 16.3559C21.1046 16.6429 21.4792 16.8008 21.8667 16.8H22.4V17.4C22.401 18.1938 22.6019 18.9711 22.9795 19.6417C23.357 20.3123 23.8958 20.8488 24.5333 21.189V24H22.9333C22.7919 24 22.6562 24.0632 22.5562 24.1757C22.4562 24.2883 22.4 24.4409 22.4 24.6V26.4H21.8667V23.4C21.8667 23.2409 21.8105 23.0883 21.7105 22.9757C21.6104 22.8632 21.4748 22.8 21.3333 22.8H20.2667V21C20.2667 20.8409 20.2105 20.6883 20.1105 20.5757C20.0104 20.4632 19.8748 20.4 19.7333 20.4H19.2V17.4C19.2 17.2409 19.1438 17.0883 19.0438 16.9757C18.9438 16.8632 18.8081 16.8 18.6667 16.8H17.6V13.2C18.4968 13.1981 19.3631 12.8333 20.0406 12.1724C20.7182 11.5115 21.1619 10.5985 21.2907 9.6H21.8667C22.5739 9.6 23.2522 9.28393 23.7523 8.72132C24.2524 8.15871 24.5333 7.39565 24.5333 6.6C24.5333 5.80435 24.2524 5.04129 23.7523 4.47868C23.2522 3.91607 22.5739 3.6 21.8667 3.6H21.3333V3.4896C21.6889 3.34871 21.9887 3.0708 22.1795 2.70508C22.3704 2.33937 22.4401 1.90946 22.3762 1.4915C22.3123 1.07353 22.119 0.69449 21.8305 0.421502C21.542 0.148515 21.177 -0.000800367 20.8 3.22677e-06H11.2C10.823 -0.000800367 10.458 0.148515 10.1695 0.421502C9.88098 0.69449 9.68767 1.07353 9.62379 1.4915C9.55991 1.90946 9.62958 2.33937 9.82046 2.70508C10.0113 3.0708 10.3111 3.34871 10.6667 3.4896V3.6H10.1333C9.42609 3.6 8.74781 3.91607 8.24772 4.47868C7.74762 5.04129 7.46667 5.80435 7.46667 6.6C7.46667 7.39565 7.74762 8.15871 8.24772 8.72132C8.74781 9.28393 9.42609 9.6 10.1333 9.6H10.7093C10.8381 10.5985 11.2818 11.5115 11.9594 12.1724C12.6369 12.8333 13.5032 13.1981 14.4 13.2V16.8H13.3333C13.1919 16.8 13.0562 16.8632 12.9562 16.9757C12.8562 17.0883 12.8 17.2409 12.8 17.4V20.4H12.2667C12.1252 20.4 11.9896 20.4632 11.8895 20.5757C11.7895 20.6883 11.7333 20.8409 11.7333 21V22.8H10.6667C10.5252 22.8 10.3896 22.8632 10.2895 22.9757C10.1895 23.0883 10.1333 23.2409 10.1333 23.4V26.4H9.6V24.6C9.6 24.4409 9.54381 24.2883 9.44379 24.1757C9.34377 24.0632 9.20812 24 9.06667 24H7.46667V21.189C8.1042 20.8488 8.64297 20.3123 9.02055 19.6417C9.39812 18.9711 9.59904 18.1938 9.6 17.4V16.8H10.1333C10.5208 16.8008 10.8954 16.6429 11.1871 16.3559C11.4787 16.0689 11.6677 15.6724 11.7186 15.2402C11.7695 14.808 11.679 14.3698 11.4638 14.0072C11.2487 13.6446 10.9236 13.3824 10.5493 13.2696C10.6479 12.9967 10.6853 12.7008 10.6581 12.4078C10.631 12.1149 10.5401 11.834 10.3936 11.5899C10.247 11.3458 10.0493 11.1461 9.8179 11.0083C9.58648 10.8705 9.32848 10.799 9.06667 10.8H2.66667C2.40485 10.799 2.14685 10.8705 1.91544 11.0083C1.68402 11.1461 1.48632 11.3458 1.33978 11.5899C1.19324 11.834 1.10238 12.1149 1.07521 12.4078C1.04804 12.7008 1.0854 12.9967 1.184 13.2696C0.809696 13.3824 0.484659 13.6446 0.269516 14.0072C0.0543742 14.3698 -0.0361806 14.808 0.0147433 15.2402C0.0656672 15.6724 0.254592 16.0689 0.546278 16.3559C0.837964 16.6429 1.21249 16.8008 1.6 16.8H2.13333V17.4C2.1343 18.1938 2.33521 18.9711 2.71278 19.6417C3.09036 20.3123 3.62914 20.8488 4.26667 21.189V24H2.66667C2.52522 24 2.38956 24.0632 2.28954 24.1757C2.18952 24.2883 2.13333 24.4409 2.13333 24.6V26.4H0.533333C0.391885 26.4 0.256229 26.4632 0.15621 26.5757C0.0561903 26.6883 0 26.8409 0 27V35.4C0 35.5591 0.0561903 35.7117 0.15621 35.8243C0.256229 35.9368 0.391885 36 0.533333 36H31.4667C31.6081 36 31.7438 35.9368 31.8438 35.8243C31.9438 35.7117 32 35.5591 32 35.4V27C32 26.8409 31.9438 26.6883 31.8438 26.5757C31.7438 26.4632 31.6081 26.4 31.4667 26.4ZM30.4 15.6H29.8667V14.4H30.4C30.5415 14.4 30.6771 14.4632 30.7771 14.5757C30.8771 14.6883 30.9333 14.8409 30.9333 15C30.9333 15.1591 30.8771 15.3117 30.7771 15.4243C30.6771 15.5368 30.5415 15.6 30.4 15.6ZM22.9333 12H29.3333C29.4748 12 29.6104 12.0632 29.7105 12.1757C29.8105 12.2883 29.8667 12.4409 29.8667 12.6C29.8667 12.7591 29.8105 12.9117 29.7105 13.0243C29.6104 13.1368 29.4748 13.2 29.3333 13.2H22.9333C22.7919 13.2 22.6562 13.1368 22.5562 13.0243C22.4562 12.9117 22.4 12.7591 22.4 12.6C22.4 12.4409 22.4562 12.2883 22.5562 12.1757C22.6562 12.0632 22.7919 12 22.9333 12ZM21.8667 15.6C21.7252 15.6 21.5896 15.5368 21.4895 15.4243C21.3895 15.3117 21.3333 15.1591 21.3333 15C21.3333 14.8409 21.3895 14.6883 21.4895 14.5757C21.5896 14.4632 21.7252 14.4 21.8667 14.4H22.4V15.6H21.8667ZM23.4667 17.4V14.4H28.8V17.4C28.8 18.1957 28.519 18.9587 28.019 19.5213C27.5189 20.0839 26.8406 20.4 26.1333 20.4C25.4261 20.4 24.7478 20.0839 24.2477 19.5213C23.7476 18.9587 23.4667 18.1957 23.4667 17.4V17.4ZM25.6 21.552C25.9533 21.616 26.3134 21.616 26.6667 21.552V24H25.6V21.552ZM23.4667 25.2H28.8V26.4H23.4667V25.2ZM21.8667 4.8C22.291 4.8 22.698 4.98965 22.998 5.32721C23.2981 5.66478 23.4667 6.12261 23.4667 6.6C23.4667 7.07739 23.2981 7.53523 22.998 7.8728C22.698 8.21036 22.291 8.4 21.8667 8.4H21.3333V4.8H21.8667ZM11.2 1.2H20.8C20.9414 1.2 21.0771 1.26322 21.1771 1.37574C21.2771 1.48826 21.3333 1.64087 21.3333 1.8C21.3333 1.95913 21.2771 2.11175 21.1771 2.22427C21.0771 2.33679 20.9414 2.4 20.8 2.4H11.2C11.0586 2.4 10.9229 2.33679 10.8229 2.22427C10.7229 2.11175 10.6667 1.95913 10.6667 1.8C10.6667 1.64087 10.7229 1.48826 10.8229 1.37574C10.9229 1.26322 11.0586 1.2 11.2 1.2V1.2ZM8.53333 6.6C8.53333 6.12261 8.7019 5.66478 9.00196 5.32721C9.30202 4.98965 9.70899 4.8 10.1333 4.8H10.6667V8.4H10.1333C9.70899 8.4 9.30202 8.21036 9.00196 7.8728C8.7019 7.53523 8.53333 7.07739 8.53333 6.6ZM11.7333 9V3.6H20.2667V9C20.2658 9.79536 19.9846 10.5579 19.4847 11.1203C18.9848 11.6827 18.307 11.9991 17.6 12H14.4C13.693 11.9991 13.0152 11.6827 12.5153 11.1203C12.0154 10.5579 11.7342 9.79536 11.7333 9ZM15.4667 13.2H16.5333V16.8H15.4667V13.2ZM13.8667 18H18.1333V20.4H13.8667V18ZM12.8 21.6H19.2V22.8H12.8V21.6ZM10.1333 15.6H9.6V14.4H10.1333C10.2748 14.4 10.4104 14.4632 10.5105 14.5757C10.6105 14.6883 10.6667 14.8409 10.6667 15C10.6667 15.1591 10.6105 15.3117 10.5105 15.4243C10.4104 15.5368 10.2748 15.6 10.1333 15.6ZM2.66667 12H9.06667C9.20812 12 9.34377 12.0632 9.44379 12.1757C9.54381 12.2883 9.6 12.4409 9.6 12.6C9.6 12.7591 9.54381 12.9117 9.44379 13.0243C9.34377 13.1368 9.20812 13.2 9.06667 13.2H2.66667C2.52522 13.2 2.38956 13.1368 2.28954 13.0243C2.18952 12.9117 2.13333 12.7591 2.13333 12.6C2.13333 12.4409 2.18952 12.2883 2.28954 12.1757C2.38956 12.0632 2.52522 12 2.66667 12ZM1.6 15.6C1.45855 15.6 1.3229 15.5368 1.22288 15.4243C1.12286 15.3117 1.06667 15.1591 1.06667 15C1.06667 14.8409 1.12286 14.6883 1.22288 14.5757C1.3229 14.4632 1.45855 14.4 1.6 14.4H2.13333V15.6H1.6ZM3.2 17.4V14.4H8.53333V17.4C8.53333 18.1957 8.25238 18.9587 7.75229 19.5213C7.25219 20.0839 6.57391 20.4 5.86667 20.4C5.15942 20.4 4.48115 20.0839 3.98105 19.5213C3.48095 18.9587 3.2 18.1957 3.2 17.4ZM5.33333 21.552C5.68661 21.616 6.04672 21.616 6.4 21.552V24H5.33333V21.552ZM3.2 25.2H8.53333V26.4H3.2V25.2ZM30.9333 34.8H1.06667V27.6H10.6667C10.8081 27.6 10.9438 27.5368 11.0438 27.4243C11.1438 27.3117 11.2 27.1591 11.2 27V24H20.8V27C20.8 27.1591 20.8562 27.3117 20.9562 27.4243C21.0562 27.5368 21.1919 27.6 21.3333 27.6H30.9333V34.8Z" fill="#FFF8F8"/>
<path d="M16.5329 26.4002C16.5329 26.2815 16.5016 26.1655 16.443 26.0669C16.3843 25.9682 16.3011 25.8914 16.2036 25.846C16.1062 25.8006 15.999 25.7887 15.8955 25.8118C15.7921 25.835 15.6971 25.8921 15.6225 25.976L14.0225 27.776L14.7766 28.6244L15.4662 27.8486V31.8002H14.3995V33.0002H17.5995V31.8002H16.5329V26.4002Z" fill="#FFF8F8"/>
</svg>
