<svg width="46" height="45" viewBox="0 0 46 45" fill="none" xmlns="http://www.w3.org/2000/svg">
<g clip-path="url(#clip0)">
<path d="M31 17.6087C31.552 17.6087 32 17.1704 32 16.6304V4.89127C31.9999 2.19522 29.758 0 27 0H4.99997C2.24203 0 0 2.19522 0 4.89127V40.1086C0 42.8047 2.24203 44.9999 4.99997 44.9999H27C29.758 44.9999 31.9999 42.8047 31.9999 40.1086V28.3695C31.9999 27.8295 31.5519 27.3912 30.9999 27.3912C30.4479 27.3912 30 27.8295 30 28.3695V40.1086C30 41.7267 28.654 43.0434 27 43.0434H4.99997C3.34594 43.0434 1.99997 41.7267 1.99997 40.1086V4.89127C1.99997 3.2732 3.34594 1.95649 4.99997 1.95649H27C28.654 1.95649 30 3.2732 30 4.89127V16.6304C30 17.1704 30.448 17.6087 31 17.6087Z" fill="#FFF8F8"/>
<path d="M45 21.5215H13C12.448 21.5215 12 21.9598 12 22.4998C12 23.0398 12.448 23.478 13 23.478H45C45.552 23.478 46 23.0397 46 22.4997C46 21.9597 45.552 21.5215 45 21.5215Z" fill="#FFF8F8"/>
<path d="M45.7075 21.8119L39.7075 15.9424C39.3175 15.5609 38.6835 15.5609 38.2935 15.9424C37.9035 16.3239 37.9035 16.9442 38.2935 17.3257L43.5855 22.5026L38.2935 27.6796C37.9035 28.0611 37.9035 28.6813 38.2935 29.0629C38.4895 29.2526 38.7454 29.3485 39.0015 29.3485C39.2575 29.3485 39.5134 29.2527 39.7075 29.0649L45.7075 23.1953C46.0975 22.8137 46.0975 22.1935 45.7075 21.8119Z" fill="#FFF8F8"/>
</g>
<defs>
<clipPath id="clip0">
<rect width="46" height="45" fill="white"/>
</clipPath>
</defs>
</svg>
